<?xml version="1.0" standalone="no"?>
<!DOCTYPE svg PUBLIC "-//W3C//DTD SVG 20010904//EN"
 "http://www.w3.org/TR/2001/REC-SVG-20010904/DTD/svg10.dtd">
<svg version="1.0" xmlns="http://www.w3.org/2000/svg"
 width="20.000000pt" height="20.000000pt" viewBox="0 0 512.000000 512.000000"
 preserveAspectRatio="xMidYMid meet">
<metadata>
Created by potrace 1.16, written by Peter Selinger 2001-2019
</metadata>
<g transform="translate(0.000000,512.000000) scale(0.100000,-0.100000)"
fill="#000000" stroke="none">
<path d="M2741 4811 c-94 -33 -140 -99 -141 -200 0 -19 -8 -43 -17 -54 -27
-29 -24 -159 4 -190 15 -15 22 -39 25 -77 2 -30 6 -62 9 -70 4 -15 0 -17 -165
-96 -44 -21 -102 -59 -130 -85 -48 -43 -53 -45 -86 -36 -56 15 -143 2 -214
-31 -147 -69 -220 -197 -252 -438 -5 -44 -3 -55 15 -73 19 -19 19 -22 5 -57
-20 -47 -46 -182 -39 -203 3 -12 -11 -23 -54 -43 -74 -35 -150 -103 -211 -191
l-49 -68 -3 200 c-3 199 -3 200 -28 222 -14 13 -69 65 -123 116 -95 91 -99 93
-145 93 -46 0 -52 -3 -143 -85 l-94 -85 -173 0 -173 0 -49 46 -50 47 0 185 0
186 44 45 c24 25 60 63 79 84 34 36 36 37 111 37 l76 0 0 -65 c0 -64 1 -65 32
-78 48 -20 58 -37 62 -106 4 -79 16 -92 16 -17 0 67 -17 106 -57 126 -39 21
-43 28 -43 89 l0 54 30 -7 c47 -9 114 -60 149 -112 25 -39 31 -58 31 -102 0
-30 -6 -73 -12 -96 -17 -56 -93 -131 -149 -146 -51 -14 -120 -5 -149 18 -21
17 -19 17 54 14 67 -4 81 -1 118 21 112 66 120 241 15 321 -52 40 -55 31 -4
-16 107 -101 82 -259 -49 -308 -22 -9 -27 -7 -31 10 -3 11 -9 17 -14 15 -4 -3
-5 -13 -2 -22 5 -14 0 -15 -43 -10 -91 11 -97 14 -124 67 -28 55 -26 116 6
165 l26 40 -31 -33 c-37 -38 -43 -94 -20 -169 14 -45 98 -120 143 -129 95 -17
181 20 240 103 25 36 30 54 34 121 4 65 1 85 -16 118 -23 44 -85 110 -122 129
-37 18 -126 26 -200 16 -58 -7 -67 -11 -95 -46 -16 -21 -46 -54 -65 -74 l-35
-36 -5 170 c-4 126 -6 74 -8 -201 l-2 -371 50 -47 49 -46 183 0 183 0 93 85
c84 77 96 85 132 85 37 0 49 -8 159 -111 66 -61 122 -120 125 -132 3 -12 6
-106 7 -210 l1 -187 -74 -88 c-99 -116 -112 -136 -100 -159 8 -15 0 -28 -45
-73 -84 -84 -104 -115 -119 -183 -30 -139 -18 -201 54 -278 58 -63 75 -70 91
-40 10 18 13 18 55 3 37 -14 47 -14 60 -3 23 19 20 49 -9 75 -14 13 -25 33
-25 44 0 36 70 151 101 168 32 16 74 74 85 117 3 15 15 32 25 37 10 6 47 32
81 58 35 26 81 56 103 66 241 112 313 164 362 260 21 41 27 67 28 133 l2 83
48 42 c26 23 61 60 76 81 l28 38 11 -43 c25 -90 99 -210 139 -223 15 -5 17
-15 13 -93 -4 -77 -8 -91 -32 -118 -15 -18 -33 -56 -40 -85 -7 -30 -22 -71
-34 -91 -17 -31 -26 -38 -53 -38 -57 0 -105 -90 -134 -250 -18 -104 -16 -351
4 -488 9 -62 17 -132 17 -155 0 -24 9 -60 19 -80 19 -37 19 -39 1 -81 -30 -66
-50 -155 -50 -218 0 -43 13 -97 50 -209 53 -157 60 -207 45 -309 -6 -45 -4
-58 9 -69 21 -18 9 -38 -63 -110 -60 -59 -111 -147 -111 -192 0 -23 -5 -27
-42 -33 -165 -26 -139 -59 60 -76 127 -11 343 0 365 19 7 5 65 15 127 21 63 6
119 15 125 21 13 14 -21 39 -52 39 -21 0 -22 3 -16 27 15 54 9 117 -18 171
-23 45 -24 54 -12 71 35 50 24 143 -21 180 -35 29 -16 114 57 260 49 98 52
109 51 175 -1 55 -9 92 -38 168 l-36 96 36 79 c80 175 107 275 119 444 4 47
10 90 13 96 4 6 33 13 64 14 67 5 68 3 68 -79 0 -149 45 -308 143 -509 l40
-81 -33 -79 c-21 -50 -35 -101 -38 -143 -4 -62 -2 -71 39 -155 42 -85 44 -95
44 -176 0 -77 -3 -91 -33 -147 -37 -72 -41 -113 -11 -143 l20 -20 -22 -46
c-18 -38 -21 -55 -16 -111 4 -36 11 -70 17 -76 22 -22 7 -32 -66 -43 -135 -19
-120 -40 53 -69 131 -22 415 -16 441 10 16 16 16 19 -1 47 -9 17 -17 41 -17
54 0 12 -16 54 -35 91 -43 86 -44 113 -5 152 34 35 37 56 14 133 -20 65 -9
149 32 256 73 190 75 196 69 255 -6 59 -31 141 -58 195 -15 28 -15 33 4 71 42
84 75 375 65 568 -8 152 -37 291 -76 371 -34 69 -57 87 -101 81 -24 -4 -34 2
-54 28 -14 18 -30 57 -35 85 -11 56 -32 97 -56 106 -11 4 -14 26 -14 92 l0 87
36 -4 c31 -4 40 1 77 40 46 48 128 186 155 261 20 57 47 64 57 15 13 -63 66
-158 114 -205 l49 -48 -14 -65 c-18 -84 -18 -224 0 -282 7 -25 43 -86 79 -136
69 -96 92 -151 102 -244 l7 -56 -59 -22 c-70 -25 -114 -74 -140 -156 -39 -126
27 -142 101 -24 31 49 63 48 93 -5 44 -77 20 -156 -52 -169 -19 -4 -41 -14
-50 -22 -21 -22 -19 -61 5 -76 11 -7 20 -20 20 -29 0 -28 36 -52 71 -47 20 3
33 0 36 -9 7 -19 37 -16 80 8 21 12 52 29 68 38 66 37 104 163 105 343 0 78 2
90 23 111 21 20 25 36 31 137 3 63 14 176 22 250 18 147 14 249 -11 320 -16
46 -115 226 -147 269 -14 18 -18 42 -18 107 0 45 -4 94 -10 108 -7 19 -5 33 7
54 15 27 15 35 -1 113 -10 46 -22 103 -27 126 -21 106 -106 232 -193 288 -92
58 -235 85 -281 51 -17 -12 -24 -10 -63 24 -56 50 -194 121 -241 125 -65 5
-101 17 -131 45 -25 23 -30 36 -30 75 0 32 6 55 20 72 28 36 29 159 1 194 -10
13 -21 47 -25 74 -13 87 -40 131 -102 161 -73 35 -160 41 -233 15z m191 -27
c9 -6 3 -99 -9 -131 -4 -9 -27 -13 -83 -13 l-78 0 -7 66 c-8 68 -4 78 30 87
24 7 132 0 147 -9z m-198 -56 c3 -24 7 -54 8 -68 3 -24 5 -25 92 -28 63 -2 92
1 97 10 8 12 24 107 21 121 -4 15 17 6 47 -22 31 -29 31 -30 31 -133 0 -70 -3
-98 -10 -88 -5 8 -10 60 -11 115 l-2 100 -8 -89 c-5 -53 -14 -93 -21 -98 -16
-10 -63 -13 -203 -13 -103 0 -110 -1 -110 -20 0 -19 7 -20 178 -20 97 0 177
-2 177 -4 0 -3 -8 -14 -17 -25 -17 -18 -16 -18 13 2 31 21 31 23 28 94 l-3 73
10 -75 c12 -99 4 -170 -22 -188 -12 -8 -29 -34 -39 -58 -11 -24 -22 -44 -26
-44 -3 0 -19 11 -36 25 -24 20 -40 25 -87 25 -51 0 -59 -3 -84 -31 -26 -30
-28 -31 -47 -14 -10 9 -22 31 -26 49 -3 17 -11 40 -17 51 -6 11 -11 23 -12 27
0 3 -4 10 -9 15 -5 5 -6 3 -2 -4 4 -7 2 -13 -3 -13 -14 0 -14 87 0 92 6 2 14
48 18 110 4 67 3 104 -3 98 -5 -5 -12 -38 -14 -72 -2 -35 -9 -67 -14 -73 -7
-7 -9 1 -4 24 3 18 6 52 6 74 0 34 6 46 40 79 23 21 45 38 50 38 5 0 11 -19
14 -42z m-124 -257 c0 -38 2 -78 5 -88 3 -10 -1 -4 -9 12 -17 34 -21 145 -6
145 6 0 10 -30 10 -69z m480 2 c0 -38 -5 -75 -10 -83 -7 -10 -10 11 -10 68 0
48 4 82 10 82 6 0 10 -29 10 -67z m-106 48 c7 -10 -27 -21 -68 -21 -37 0 -23
17 19 23 17 2 33 5 37 6 4 0 9 -3 12 -8z m-212 -13 c-8 -8 -20 -8 -44 -1 l-33
11 45 1 c33 1 41 -2 32 -11z m-112 -171 c0 -5 -4 -5 -10 -2 -5 3 -10 14 -10
23 0 15 2 15 10 2 5 -8 10 -19 10 -23z m374 -2 c-9 -14 -19 -24 -21 -21 -7 7
16 46 28 46 5 0 2 -11 -7 -25z m-385 -50 l2 30 14 -25 c8 -14 14 -35 15 -48 0
-23 0 -23 -25 -5 -19 14 -24 26 -23 58 l1 40 7 -40 c6 -36 7 -37 9 -10z m401
8 c-1 -24 -2 -26 -11 -10 -5 9 -7 22 -4 27 10 17 15 11 15 -17z m-122 -24 l36
-32 17 22 c16 19 18 20 22 4 4 -14 5 -13 6 5 1 27 17 29 24 3 6 -23 -15 -45
-64 -65 -33 -14 -38 -13 -65 5 -35 23 -91 25 -122 3 -12 -8 -35 -14 -50 -12
-21 2 -28 9 -30 31 -3 25 -1 27 16 18 16 -8 24 -5 47 19 24 25 36 30 78 30 41
0 55 -5 85 -31z m217 -110 c36 -13 47 -29 20 -29 -20 0 -98 39 -107 54 -19 29
-6 36 22 13 16 -14 46 -31 65 -38z m-441 -131 c15 -48 6 -66 -14 -28 -18 33
-50 171 -43 183 4 6 14 -16 24 -49 10 -32 25 -80 33 -106z m306 141 c0 -6 -16
-39 -37 -72 -20 -33 -36 -66 -36 -73 0 -7 -4 -11 -8 -8 -4 2 -10 -5 -14 -16
-6 -17 -25 -29 -25 -15 0 8 81 169 92 183 13 15 28 16 28 1z m15 -90 c-16 -63
-29 -88 -41 -77 -2 3 8 45 23 94 31 100 44 89 18 -17z m-395 71 c0 -10 -32
-30 -49 -30 -19 0 -12 17 12 28 28 14 37 14 37 2z m693 -44 c84 -39 118 -65
99 -73 -7 -2 -35 -20 -63 -40 -50 -34 -51 -34 -130 -27 -117 10 -100 -10 25
-30 143 -22 158 -28 149 -63 -4 -16 -7 -74 -7 -130 -1 -56 -3 -99 -6 -97 -2 3
-7 37 -11 77 -7 71 -7 71 -4 -15 l4 -88 -40 -50 c-41 -52 -121 -120 -172 -146
-41 -22 -115 -20 -237 5 -186 40 -165 25 -168 116 -2 44 4 129 13 189 15 102
18 111 57 157 22 26 47 51 56 54 10 4 57 9 105 12 l89 6 41 50 c82 97 109 127
119 127 5 0 42 -15 81 -34z m-793 -1 c0 -39 24 -119 41 -136 14 -14 33 -19 69
-19 53 0 51 1 116 -74 11 -11 18 -25 16 -29 -4 -14 -41 -259 -47 -319 -6 -57
-7 -57 -43 -63 -99 -15 -156 -27 -194 -41 -59 -21 -100 -17 -144 12 -46 30
-67 55 -95 108 -33 61 -24 177 20 273 19 40 41 79 51 88 11 10 53 20 111 27
52 6 97 14 101 17 4 3 1 26 -7 51 -14 42 -15 43 -10 8 l6 -36 -63 -7 c-74 -7
-131 -2 -135 12 -5 15 68 75 135 111 65 36 72 38 72 17z m604 6 c3 -4 -6 -23
-20 -42 -15 -19 -24 -29 -22 -24 3 6 11 25 18 43 16 35 16 36 24 23z m-281 -8
c-18 -2 -48 -2 -65 0 -18 2 -4 4 32 4 36 0 50 -2 33 -4z m22 -33 c-24 -10 -97
-12 -119 -4 -35 13 -12 19 61 15 53 -2 72 -6 58 -11z m-239 -68 c-12 -11 -17
7 -9 34 l8 29 3 -28 c2 -16 1 -31 -2 -35z m234 28 c0 -6 -27 -10 -60 -10 -33
0 -60 4 -60 10 0 6 27 10 60 10 33 0 60 -4 60 -10z m-10 -41 c0 -5 -22 -9 -50
-9 -33 0 -50 4 -50 13 0 8 15 11 50 9 27 -2 50 -8 50 -13z m600 15 c0 -17 -36
-64 -50 -64 -38 1 -42 17 -10 44 29 24 60 34 60 20z m288 -29 c76 -35 155
-115 197 -198 35 -69 45 -130 24 -143 -6 -3 -54 -6 -107 -5 l-96 2 -103 61
c-101 60 -102 61 -109 106 -7 48 0 165 12 196 6 16 14 17 68 12 34 -4 85 -18
114 -31z m-1604 -37 c-9 -18 -22 -68 -28 -112 l-12 -78 -63 -23 c-40 -15 -79
-38 -105 -63 -42 -41 -75 -62 -97 -62 -20 0 -3 96 29 164 52 110 122 171 232
199 30 8 56 13 58 12 2 -2 -4 -18 -14 -37z m91 22 l26 -10 -20 -29 c-20 -27
-42 -100 -56 -183 -4 -27 -11 -38 -23 -38 -30 0 -116 -46 -162 -87 -43 -38
-157 -103 -180 -103 -6 0 -10 12 -8 27 2 22 11 31 45 43 24 9 62 35 85 57 37
36 104 74 171 96 13 5 17 17 17 50 0 72 43 187 70 187 5 0 21 -5 35 -10z
m1301 -82 c0 -126 6 -143 57 -169 23 -12 67 -39 97 -60 54 -37 58 -39 167 -45
82 -5 116 -4 127 5 12 10 16 4 26 -41 18 -81 12 -102 -31 -106 -29 -2 -44 4
-78 32 -40 33 -94 56 -134 56 -26 0 -89 28 -112 50 -11 10 -52 35 -91 54 -82
40 -84 43 -84 167 0 119 7 149 34 149 22 0 22 -4 22 -92z m-706 72 c12 -8 12
-10 -2 -15 -24 -9 -61 -2 -66 13 -4 14 45 17 68 2z m-25 -50 c-3 -5 -13 -10
-21 -10 -8 0 -14 5 -14 10 0 6 9 10 21 10 11 0 17 -4 14 -10z m-721 -364 c39
-16 61 -62 52 -107 -3 -18 -24 -68 -47 -112 -22 -44 -42 -90 -43 -103 -5 -50
-66 -79 -66 -31 0 58 -21 99 -64 125 l-44 27 43 85 c63 124 95 147 169 116z
m1602 -17 c49 -13 53 -17 88 -113 41 -113 79 -156 126 -141 31 10 24 25 -9 19
-24 -5 -32 -1 -47 21 -21 31 -85 188 -79 193 12 12 49 -16 80 -60 36 -49 38
-50 78 -45 23 2 49 8 58 12 12 4 19 -1 26 -22 9 -28 10 -190 0 -199 -2 -2 -12
35 -22 83 -20 97 -42 140 -30 59 9 -63 -8 -106 -42 -106 -32 0 -69 -38 -84
-89 -11 -37 -16 -41 -43 -41 -17 0 -47 10 -66 21 -25 16 -31 17 -21 5 8 -9 11
-19 8 -22 -9 -9 -86 107 -106 162 -27 71 -45 175 -37 208 8 32 40 66 62 66 8
0 35 -5 60 -11z m-1777 -79 c-21 -44 -39 -84 -39 -87 0 -12 -73 -113 -82 -113
-4 0 -8 7 -8 16 0 8 4 13 9 10 5 -4 17 18 27 46 9 29 26 71 37 93 22 44 76
115 88 115 4 0 -10 -36 -32 -80z m1487 36 c8 -33 -3 -51 -22 -35 -22 18 -17
59 7 59 5 0 11 -11 15 -24z m-28 -53 c19 -25 36 -53 40 -62 5 -14 4 -14 -13
-1 -22 18 -75 89 -75 102 0 18 16 5 48 -39z m-1526 -20 c-11 -21 -25 -55 -32
-76 -6 -21 -14 -36 -16 -34 -6 6 25 97 42 125 23 35 26 26 6 -15z m1490 -5
l21 -36 -38 -61 c-23 -37 -44 -61 -53 -59 -8 2 -34 26 -58 54 l-44 51 68 46
c37 26 71 45 75 44 5 -1 18 -19 29 -39z m-1069 -35 c3 -24 1 -43 -4 -43 -5 0
-9 21 -9 47 0 56 5 54 13 -4z m607 21 c44 -13 78 -29 109 -51 2 -1 -4 -15 -14
-30 l-18 -28 21 19 c22 19 22 19 114 -52 51 -39 119 -92 151 -117 31 -26 57
-42 57 -37 0 12 -77 78 -194 165 l-88 67 43 1 c24 1 55 3 69 4 19 2 38 -10 77
-48 29 -27 61 -51 71 -52 11 0 34 -13 52 -29 l33 -27 -29 -56 c-16 -31 -36
-61 -46 -66 -20 -13 -36 -2 -199 130 -63 51 -139 105 -169 120 -50 26 -65 28
-170 28 -93 0 -122 -4 -153 -19 l-38 -19 -31 29 c-25 24 -29 25 -19 7 6 -12
18 -26 27 -31 13 -7 7 -21 -38 -84 -30 -41 -60 -89 -68 -107 l-13 -33 -23 29
c-30 36 -30 60 2 130 40 92 65 111 194 153 72 24 217 26 290 4z m-537 -19 l28
-25 -22 -61 c-17 -47 -24 -57 -31 -45 -13 23 -23 156 -12 156 5 0 22 -12 37
-25z m77 -33 c0 -4 -18 -43 -40 -87 -33 -66 -40 -75 -40 -50 0 47 42 145 62
145 10 0 18 -3 18 -8z m971 -22 c13 -9 -34 -70 -53 -70 -24 0 -23 5 9 59 17
30 28 40 31 31 3 -8 9 -17 13 -20z m646 -57 c-3 -10 -5 -4 -5 12 0 17 2 24 5
18 2 -7 2 -21 0 -30z m-2098 1 c39 -50 21 -154 -27 -154 -7 0 -27 14 -43 31
l-29 31 0 -25 c0 -54 90 -78 130 -34 16 17 20 18 14 4 -16 -43 -88 -50 -131
-13 -24 21 -28 31 -27 74 3 69 26 112 64 112 19 0 35 -9 49 -26z m883 16 c24
-7 35 -15 32 -24 -4 -10 -22 -12 -73 -8 -44 3 -75 0 -87 -7 -16 -10 -12 -11
24 -6 51 6 114 -3 106 -16 -3 -5 -38 -9 -79 -9 -71 0 -74 1 -83 28 -8 24 -6
28 17 39 33 15 95 16 143 3z m64 -68 c15 -10 -6 -95 -31 -122 -15 -17 -31 -20
-92 -20 l-73 0 0 55 0 55 64 0 c49 0 69 5 87 20 27 22 30 23 45 12z m-221 -69
c6 -29 4 -33 -20 -39 -20 -5 -32 -1 -48 15 l-21 21 29 30 c33 35 48 28 60 -27z
m1299 25 c24 -34 19 -42 -10 -19 -37 29 -62 27 -75 -6 -11 -28 -8 -89 6 -128
4 -13 1 -12 -9 5 -24 39 -21 119 6 147 27 29 62 29 82 1z m-983 -33 c8 5 5 -1
-5 -13 -11 -12 -25 -22 -33 -22 -18 0 -37 44 -29 67 7 16 10 15 31 -11 15 -19
27 -26 36 -21z m-1244 -26 c-3 -74 65 -103 176 -76 94 23 157 31 157 19 0 -30
-19 -43 -95 -67 -70 -21 -89 -32 -124 -70 -33 -36 -41 -52 -41 -84 0 -37 -3
-40 -52 -66 -29 -15 -72 -41 -96 -57 l-44 -30 -15 22 c-18 26 -71 50 -110 50
-26 0 -24 4 42 71 39 39 105 100 148 136 42 37 75 68 73 71 -10 9 -137 -91
-239 -188 -57 -55 -108 -100 -112 -100 -4 0 3 17 14 38 l21 37 -21 -25 c-12
-14 -26 -32 -33 -40 -6 -9 -24 -24 -41 -34 -30 -19 -30 -19 -15 0 8 10 41 48
72 84 32 36 86 105 120 154 57 81 151 176 163 165 2 -3 -14 -29 -36 -59 l-40
-55 43 46 c24 26 51 58 61 73 10 14 20 26 22 26 2 0 3 -19 2 -41z m2217 8 c15
-21 17 -31 9 -49 -11 -22 -11 -22 -18 -3 -20 59 -24 60 -25 10 l-2 -50 -16 47
c-13 39 -13 50 -2 63 16 20 29 16 54 -18z m154 -39 c78 -138 95 -186 100 -278
4 -74 -9 -264 -27 -386 l-6 -41 -32 14 -33 13 0 105 c0 102 1 106 24 117 14 6
27 17 30 24 6 16 -6 18 -20 4 -15 -15 -39 -3 -52 25 -6 13 -23 87 -38 165 -23
124 -25 148 -15 197 6 31 11 69 11 85 0 15 4 28 8 28 5 0 27 -33 50 -72z
m-2058 47 c0 -2 -10 -10 -22 -16 -21 -11 -22 -11 -9 4 13 16 31 23 31 12z
m1965 -90 c-31 -83 -31 -97 0 -213 26 -95 53 -160 78 -180 10 -9 12 -23 6 -59
-4 -27 -5 -68 -2 -93 5 -37 3 -43 -8 -32 -7 7 -38 12 -71 12 -64 0 -59 -9 -73
120 -10 98 -37 218 -55 248 -14 23 -28 32 -62 37 -24 4 -56 13 -71 21 -21 10
-27 10 -24 1 2 -7 23 -19 47 -28 52 -19 69 -49 101 -170 25 -96 39 -286 20
-275 -6 4 -11 18 -11 32 0 17 -4 23 -12 18 -7 -4 -8 -3 -4 5 8 13 -10 78 -25
87 -6 3 -3 -11 5 -31 24 -56 19 -56 -12 0 -16 28 -43 73 -61 100 -49 77 -63
139 -57 253 2 53 5 99 5 102 1 3 10 -9 20 -26 33 -55 160 -71 201 -27 10 10
32 56 50 102 19 47 35 80 37 74 2 -6 -8 -41 -22 -78z m-961 66 c4 -5 -16 -23
-43 -40 -39 -24 -52 -27 -60 -17 -8 10 -2 16 29 26 22 7 45 19 51 27 13 15 16
16 23 4z m-519 -31 c3 -6 -1 -7 -9 -4 -18 7 -21 14 -7 14 6 0 13 -4 16 -10z
m49 -5 c-4 -8 -13 -15 -20 -15 -12 0 -12 3 -2 15 17 19 29 19 22 0z m1196 -17
c0 -4 24 -21 53 -38 54 -31 51 -40 -6 -16 -18 7 -45 30 -61 50 -23 31 -24 35
-7 24 12 -7 21 -16 21 -20z m-1104 -66 c5 -52 4 -61 -8 -57 -18 7 -48 58 -48
82 0 10 7 29 16 42 22 30 30 16 40 -67z m244 61 c0 -9 -19 -45 -41 -80 l-41
-63 -53 0 c-61 0 -85 17 -85 58 0 15 -3 37 -6 49 -6 21 -3 22 85 25 50 2 91 2
91 0 0 -2 -12 -24 -26 -48 -15 -25 -24 -47 -21 -50 6 -6 77 109 77 125 0 7 5
9 10 6 6 -3 10 -13 10 -22z m-415 -9 c14 -9 34 -14 46 -11 15 4 19 2 15 -10
-3 -8 3 -46 15 -84 11 -38 19 -74 17 -81 -7 -20 -51 81 -46 106 4 18 1 22 -13
19 -20 -6 -69 38 -69 62 0 19 5 19 35 -1z m613 1 c34 -10 27 -21 -33 -55 -38
-22 -63 -45 -81 -76 -28 -48 -39 -48 -53 4 -8 25 -5 37 13 64 24 36 93 80 116
74 8 -3 25 -7 38 -11z m-1049 -82 c-33 -100 -92 -151 -281 -242 -69 -33 -131
-67 -138 -76 -17 -20 -30 -19 -30 4 0 30 170 134 237 145 55 10 80 28 26 20
l-42 -6 46 70 c40 62 52 73 92 87 25 9 57 22 71 30 14 7 27 12 28 10 2 -2 -2
-21 -9 -42z m1082 -20 c-10 -17 -10 -16 -11 3 0 23 13 41 18 25 2 -6 -1 -18
-7 -28z m-661 -14 c0 -11 12 -41 26 -65 15 -25 28 -59 30 -76 4 -29 3 -30 -14
-16 -9 8 -29 19 -44 26 -23 9 -28 18 -28 44 l1 33 13 -31 c13 -29 46 -54 46
-35 0 5 -11 29 -25 52 -25 45 -33 89 -15 89 6 0 10 -9 10 -21z m569 -45 c-21
-22 -49 -32 -49 -18 0 3 15 25 33 47 30 39 32 40 35 18 2 -14 -5 -33 -19 -47z
m-149 -34 c-17 -31 -37 -25 -32 10 2 17 2 30 -1 30 -6 0 -15 -32 -31 -102 -6
-26 -10 -28 -60 -28 -62 0 -72 9 -78 68 l-4 42 71 0 c62 1 74 4 105 30 l35 29
3 -29 c2 -16 -2 -38 -8 -50z m270 25 c0 -42 -2 -46 -35 -60 -19 -8 -51 -22
-70 -30 -19 -8 -35 -12 -35 -10 0 11 49 81 69 99 17 15 53 39 69 45 1 1 2 -19
2 -44z m-490 -47 c0 -10 -2 -18 -5 -18 -7 0 -35 57 -35 72 1 19 40 -34 40 -54z
m280 -46 c-35 -67 -40 -71 -40 -29 0 24 7 44 20 57 31 31 43 14 20 -28z m-302
-9 c23 -45 36 -107 22 -98 -14 9 -60 101 -60 120 0 27 19 16 38 -22z m236 -30
c-9 -66 -28 -83 -21 -20 7 66 -19 45 -28 -24 l-7 -49 -64 0 c-60 0 -64 2 -64
23 0 12 -3 32 -6 45 -6 21 -4 22 63 22 61 0 72 3 93 25 34 36 42 31 34 -22z
m337 16 c17 -61 12 -72 -49 -104 -103 -54 -153 -110 -251 -280 -48 -84 -51
-87 -51 -54 0 86 78 259 136 304 18 14 62 39 96 55 35 16 56 29 47 29 -29 2
-157 -69 -184 -101 -52 -62 -115 -222 -115 -293 0 -46 -20 -59 -76 -50 -34 5
-54 15 -74 37 -35 38 -113 175 -113 196 0 24 -51 135 -69 150 -9 7 2 -22 24
-65 l41 -78 -49 49 c-27 26 -75 66 -106 89 -32 22 -58 42 -58 45 0 15 24 82
30 82 20 0 128 -69 160 -101 50 -52 74 -59 193 -59 114 0 126 5 221 79 52 40
206 106 231 98 5 -2 12 -14 16 -28z m-1666 -49 c32 -30 34 -84 3 -117 -29 -31
-38 -29 -38 11 0 22 -9 45 -24 63 -20 24 -32 28 -75 28 -57 0 -68 17 -23 34
46 18 129 8 157 -19z m-215 -50 c0 -5 -21 -23 -47 -41 l-48 -32 43 42 c44 43
52 48 52 31z m87 -45 c-11 -23 -12 -23 -26 -3 -11 16 -11 22 -1 28 24 15 39 1
27 -25z m43 -25 c0 -10 -7 -20 -15 -24 -16 -6 -20 10 -9 38 8 20 24 11 24 -14z
m-110 -10 c-12 -16 -23 -30 -26 -30 -2 0 2 14 11 30 9 17 20 30 26 30 6 0 1
-13 -11 -30z m993 -12 c-20 -54 -33 -69 -33 -39 0 25 29 81 42 81 4 0 0 -19
-9 -42z m917 12 c0 -17 -103 -120 -120 -120 -12 0 -24 65 -15 80 3 5 10 8 15
5 4 -3 11 2 14 11 3 8 10 13 15 10 5 -3 12 1 15 10 3 8 10 12 16 9 5 -3 10 -2
10 4 0 10 30 20 43 14 4 -2 7 -12 7 -23z m-1964 -18 c-15 -29 -34 -42 -61 -42
-17 0 -27 27 -13 36 7 5 8 2 3 -7 -4 -8 5 -2 21 12 27 25 55 40 62 34 2 -2 -3
-17 -12 -33z m-60 16 c4 -7 3 -10 -1 -5 -5 4 -34 -16 -64 -45 l-56 -53 55 58
c30 31 55 57 57 57 1 0 5 -6 9 -12z m1197 -22 c18 -14 18 -16 -3 -56 -12 -23
-24 -40 -27 -37 -11 12 -20 76 -11 91 11 19 17 20 41 2z m978 -36 c57 -110 87
-365 69 -598 -10 -135 -27 -272 -34 -280 -2 -1 -9 17 -15 42 -8 33 -8 65 0
118 6 40 11 150 11 243 0 224 -23 373 -77 499 -15 35 27 13 46 -24z m-2006 20
c11 -17 -7 -61 -29 -70 -34 -13 -76 -1 -76 21 0 11 6 19 13 19 7 0 18 9 25 20
13 21 56 27 67 10z m1955 -41 c62 -146 85 -454 52 -702 l-7 -48 -36 30 -37 30
-6 148 c-15 302 -42 557 -58 547 -6 -4 -7 -20 -4 -38 12 -57 34 -330 42 -496
l7 -165 39 -39 c22 -22 43 -47 49 -57 17 -32 9 -41 -17 -20 -21 17 -41 21 -98
21 -86 0 -149 -27 -183 -79 -32 -47 -39 -21 -23 87 17 123 2 230 -58 385 -25
67 -25 68 -8 122 22 69 85 163 139 207 70 57 160 118 172 118 7 0 22 -23 35
-51z m-1903 19 c-3 -8 -6 -5 -6 6 -1 11 2 17 5 13 3 -3 4 -12 1 -19z m800 3
c6 -10 36 -32 67 -49 110 -63 168 -132 206 -248 l22 -64 -22 -93 c-13 -50 -25
-136 -28 -189 -4 -92 -3 -99 27 -163 35 -76 36 -84 18 -109 -12 -16 -16 -13
-44 32 -39 63 -98 106 -164 122 -64 16 -138 8 -156 -16 -19 -26 -16 -9 6 34
21 43 36 175 15 148 -6 -9 -14 -38 -18 -64 -15 -112 -23 -57 -21 160 1 227 2
236 32 348 17 63 34 124 39 134 5 13 4 17 -4 12 -15 -9 -56 -142 -73 -236 -8
-42 -14 -145 -13 -235 0 -128 -2 -148 -9 -100 -12 82 0 345 18 425 33 143 72
200 102 151z m-1053 -3 c-23 -39 -61 -78 -76 -78 -31 0 -29 19 4 33 18 8 42
24 52 36 21 23 31 28 20 9z m1268 -45 c-35 -14 -38 -11 -22 28 l13 31 18 -23
c18 -24 18 -24 -9 -36z m638 -3 c0 -4 -16 -6 -35 -6 -41 1 -44 9 -13 31 21 14
24 14 35 -2 7 -9 13 -20 13 -23z m-1830 -14 c0 -5 -7 -3 -15 4 -8 7 -12 17 -9
22 7 10 24 -9 24 -26z m146 -15 c-9 -17 -18 -31 -20 -31 -2 0 -23 9 -47 20
l-44 20 38 0 c23 0 44 7 55 19 25 26 36 9 18 -28z m-190 5 c16 -13 17 -18 7
-35 -7 -12 -13 -29 -13 -40 0 -10 -7 -24 -15 -31 -12 -10 -13 -7 -4 22 6 18
13 41 16 51 5 15 1 17 -21 11 -28 -7 -34 4 -14 24 15 15 20 15 44 -2z m1254 9
c0 -2 -10 -9 -22 -15 -22 -11 -22 -10 -4 4 21 17 26 19 26 11z m1573 -30 c10
-20 29 -40 44 -46 35 -13 43 -26 43 -71 l0 -37 -57 40 c-32 22 -64 51 -71 64
-15 29 -42 45 -76 45 -19 0 -31 -9 -46 -37 -23 -42 -18 -8 6 39 17 32 26 36
90 37 48 1 51 -1 67 -34z m-973 15 c13 -9 13 -10 0 -9 -8 0 -24 4 -35 9 l-20
9 20 0 c11 0 27 -4 35 -9z m-1973 -28 c8 -5 4 -16 -13 -37 -23 -28 -24 -28
-16 -5 5 14 7 31 5 38 -5 13 6 16 24 4z m82 -44 c-5 -18 -9 -35 -9 -37 0 -3
-4 -1 -9 5 -13 13 -1 64 14 64 11 0 11 -8 4 -32z m2791 -38 c0 -10 8 -24 18
-30 16 -11 16 -11 -1 -6 -10 3 -23 6 -28 6 -5 0 -10 10 -10 23 l-2 22 -4 -22
c-3 -17 -11 -23 -30 -23 -23 0 -24 2 -12 18 30 38 69 45 69 12z m-2679 -14
c-6 -7 -8 -16 -4 -20 4 -4 -1 -4 -11 0 -14 5 -15 9 -4 15 7 5 9 9 5 9 -5 0 -5
5 -2 10 4 6 11 8 16 4 6 -4 6 -10 0 -18z m-208 3 c-8 -8 -6 -16 8 -30 20 -20
26 -79 9 -79 -5 0 -10 13 -10 28 0 16 -6 37 -14 48 -13 18 -6 44 12 44 3 0 1
-5 -5 -11z m105 -71 c0 -32 -2 -38 -8 -23 -12 27 -12 65 -1 65 5 0 9 -19 9
-42z m-118 -10 c0 -38 -5 -34 -13 10 -4 21 -3 31 3 27 6 -3 10 -20 10 -37z
m176 12 c-1 -30 -10 -38 -21 -20 -8 12 3 50 14 50 5 0 8 -13 7 -30z m2724 20
c19 -10 19 -11 -2 -46 -28 -47 -20 -99 22 -136 26 -24 28 -31 20 -54 -6 -14
-16 -24 -23 -22 -17 5 -96 168 -97 201 0 27 30 67 51 67 6 0 19 -5 29 -10z
m-2819 -23 c-10 -9 -11 -8 -5 6 3 10 9 15 12 12 3 -3 0 -11 -7 -18z m2715 -6
c-15 -17 -22 -18 -43 -8 -23 10 -23 12 -6 18 10 4 29 8 42 8 23 1 23 0 7 -18z
m202 -75 c3 -49 -11 -86 -32 -86 -7 0 -25 9 -40 21 -20 16 -26 29 -26 60 0 22
7 51 16 65 l17 24 31 -19 c26 -17 31 -27 34 -65z m-336 52 c-19 -19 -14 -33 6
-15 10 10 29 17 42 17 l23 0 -23 -25 c-27 -29 -42 -31 -60 -10 -10 12 -10 18
0 30 7 8 15 15 18 15 3 0 1 -5 -6 -12z m-1127 -68 c14 -27 29 -80 34 -117 l8
-68 2 53 c1 37 4 51 12 46 31 -19 -17 -227 -79 -351 l-28 -55 -27 62 c-32 73
-35 140 -11 275 12 74 52 205 61 205 2 0 14 -22 28 -50z m1215 36 c0 -16 -24
-38 -33 -30 -8 9 11 44 23 44 6 0 10 -6 10 -14z m83 -105 c-7 -27 -19 -27 -34
0 -22 42 -29 81 -17 103 11 20 13 17 34 -30 13 -29 20 -61 17 -73z m-2773 55
c0 -5 -11 1 -25 14 -13 12 -22 27 -18 33 6 10 42 -30 43 -47z m114 13 c-10
-16 -24 -9 -24 12 0 18 2 19 15 9 8 -7 12 -16 9 -21z m-44 -22 c0 -6 -9 -2
-20 8 -11 10 -20 23 -20 28 0 6 9 2 20 -8 11 -10 20 -23 20 -28z m2514 35 c9
-14 -9 -31 -32 -29 -26 2 -26 1 -6 21 17 18 30 20 38 8z m-683 -207 c21 -102
23 -214 5 -265 l-13 -34 -11 29 c-63 171 -82 233 -92 303 -12 81 -12 82 14
113 14 17 26 36 26 42 0 34 55 -110 71 -188z m-1737 169 c10 -25 1 -27 -19 -4
-15 17 -16 20 -3 20 9 0 19 -7 22 -16z m-39 -4 c3 -5 1 -10 -4 -10 -6 0 -11 5
-11 10 0 6 2 10 4 10 3 0 8 -4 11 -10z m-94 -17 c13 -16 12 -17 -3 -4 -17 13
-22 21 -14 21 2 0 10 -8 17 -17z m2509 -1 c0 -5 -7 -17 -15 -28 -15 -19 -20
-8 -9 20 6 17 24 22 24 8z m412 -73 c-15 -59 -68 -50 -56 9 5 23 12 32 26 32
12 0 22 9 26 23 7 21 7 21 10 -4 2 -15 -1 -42 -6 -60z m-382 66 c0 -12 -24
-55 -32 -55 -11 0 -10 4 4 35 9 21 28 35 28 20z m240 -36 c0 -6 -4 -7 -10 -4
-5 3 -10 11 -10 16 0 6 5 7 10 4 6 -3 10 -11 10 -16z m-31 -77 c-6 -18 -15
-32 -20 -32 -13 0 -11 54 3 68 19 19 29 -2 17 -36z m42 -30 c-6 -10 -7 -23 -3
-28 3 -5 -2 -2 -12 7 -15 14 -16 20 -6 39 8 15 15 19 22 12 7 -7 6 -16 -1 -30z
m59 -18 c0 -26 -17 -33 -26 -9 -8 20 3 48 16 40 5 -3 10 -17 10 -31z m50 -4
c0 -11 -6 -20 -14 -20 -9 0 -12 7 -9 20 3 11 9 20 14 20 5 0 9 -9 9 -20z
m-190 -20 c-6 -11 -15 -20 -21 -20 -6 0 -8 -4 -4 -9 7 -12 -12 -24 -25 -16
-13 8 29 65 47 65 11 0 11 -5 3 -20z m70 -8 c0 -15 -31 -72 -40 -72 -15 0 -23
26 -16 55 5 19 12 24 31 23 14 -1 25 -4 25 -6z m43 -45 c-6 -13 -18 -24 -27
-24 -20 0 -20 1 0 39 11 22 19 27 27 19 7 -7 7 -17 0 -34z m57 24 c0 -17 -12
-41 -21 -41 -10 0 -12 33 -2 43 9 10 23 9 23 -2z m-1903 -43 c-3 -7 -5 -2 -5
12 0 14 2 19 5 13 2 -7 2 -19 0 -25z m1650 16 c2 -7 -10 -14 -26 -16 -27 -4
-29 -2 -20 14 11 20 40 21 46 2z m32 -38 c-2 -2 -15 -9 -29 -15 -24 -11 -24
-11 -6 3 16 13 49 24 35 12z m141 -16 c-12 -22 -25 -26 -35 -10 -5 8 19 24 43
29 1 1 -2 -8 -8 -19z m-90 -5 c0 -16 -59 -47 -72 -39 -15 10 -8 21 25 37 41
20 47 20 47 2z m-1517 -141 c4 -4 -3 -21 -16 -38 l-22 -31 34 28 c18 15 35 26
37 24 2 -1 -7 -30 -21 -63 -23 -58 -25 -59 -65 -62 -52 -4 -67 9 -75 63 -12
73 -3 85 64 85 32 0 61 -3 64 -6z m965 -51 c-2 -14 -15 -19 -56 -21 -32 -2
-60 2 -68 9 -23 19 1 29 69 29 50 0 58 -2 55 -17z m-898 -17 c0 -7 -3 -34 -6
-60 -7 -49 -20 -60 -27 -23 -4 20 -4 20 -6 -3 0 -15 4 -31 10 -37 7 -7 7 -13
0 -17 -5 -4 -15 3 -21 15 -19 34 13 139 41 139 5 0 9 -6 9 -14z m746 -1 c-3
-8 -1 -15 4 -15 6 0 10 -15 10 -32 l-1 -33 -20 38 c-19 37 -18 57 3 57 5 0 8
-7 4 -15z m184 9 c0 -21 -23 -155 -31 -181 -18 -57 -92 -53 -101 7 -4 29 -3
30 36 30 59 0 68 9 66 66 -3 51 6 84 21 84 5 0 9 -3 9 -6z m-1143 -41 c-3 -10
-5 -4 -5 12 0 17 2 24 5 18 2 -7 2 -21 0 -30z m1095 3 c14 -20 9 -74 -8 -80
-26 -10 -79 -7 -92 6 -7 7 -12 29 -12 49 l0 37 53 -1 c28 0 55 -5 59 -11z
m-847 -156 c-69 -136 -79 -187 -72 -363 2 -82 9 -153 13 -157 5 -5 9 69 9 168
0 124 4 189 14 217 28 83 94 214 104 208 6 -4 8 0 5 9 -4 8 -3 21 2 28 12 20
60 -149 60 -214 0 -46 -8 -73 -50 -159 -42 -86 -51 -116 -56 -179 -6 -67 -4
-81 15 -113 23 -40 27 -85 9 -103 -18 -18 -24 -15 -67 23 -21 19 -55 42 -74
50 -42 18 -110 20 -138 4 -19 -10 -20 -8 -14 33 9 58 -7 141 -55 292 -44 136
-51 218 -27 311 l14 50 17 -35 c10 -19 34 -52 54 -72 33 -35 40 -38 93 -38 70
0 102 23 151 108 51 89 46 37 -7 -68z m732 67 c7 -4 13 -13 13 -20 0 -7 -4 -6
-10 3 -8 12 -10 10 -10 -8 0 -13 5 -32 10 -43 6 -10 8 -19 6 -19 -11 0 -34 57
-41 95 -5 34 -4 37 6 20 7 -11 18 -24 26 -28z m-970 1 c-3 -7 -5 -2 -5 12 0
14 2 19 5 13 2 -7 2 -19 0 -25z m42 -26 l12 -44 45 4 c24 2 44 0 44 -4 0 -13
-87 -9 -97 5 -12 14 -35 104 -24 91 4 -5 13 -29 20 -52z m861 -11 c40 -86 64
-109 121 -116 83 -11 143 44 156 146 7 46 10 45 28 -7 14 -43 7 -68 -45 -152
-33 -54 -52 -135 -70 -295 -14 -128 -7 -154 9 -35 26 188 42 250 84 334 36 72
43 82 49 62 17 -61 8 -123 -28 -198 -57 -120 -77 -209 -72 -316 l5 -91 -50 31
c-70 43 -135 43 -207 -2 -29 -18 -54 -31 -56 -29 -3 2 6 26 18 53 20 41 23 66
23 159 0 105 -2 114 -37 200 -21 49 -38 102 -38 118 0 39 21 117 31 117 5 0 6
6 3 14 -3 7 1 16 9 19 9 3 18 -7 27 -31 7 -21 21 -49 32 -64 17 -24 18 -38 12
-114 -5 -68 -4 -88 7 -95 11 -6 14 -37 13 -134 -1 -151 17 -157 23 -8 5 109
-11 322 -24 332 -20 13 -74 171 -60 171 3 0 20 -31 37 -69z m244 32 c-10 -57
-40 -110 -66 -117 -34 -9 -66 -7 -73 3 -3 6 13 9 37 9 51 -1 72 21 82 83 4 23
9 46 12 51 11 18 15 6 8 -29z m-1014 -8 c0 -33 -2 -35 -35 -35 -19 0 -35 1
-35 3 0 1 -4 17 -9 35 l-10 32 45 0 c44 0 44 0 44 -35z m-17 -688 c18 -8 39
-22 47 -33 14 -18 14 -18 -4 -4 -11 8 -40 14 -71 14 -48 0 -52 2 -44 18 12 21
29 23 72 5z m945 -39 c6 -6 12 -19 12 -29 0 -10 5 -21 10 -24 6 -3 10 -17 10
-30 0 -18 -4 -23 -16 -18 -11 4 -14 13 -10 29 4 14 2 24 -4 24 -5 0 -10 -9
-10 -20 0 -17 -8 -19 -67 -22 -64 -3 -68 -5 -90 -37 l-23 -34 0 51 c0 28 3 57
6 66 9 24 34 19 35 -6 l2 -23 4 23 c4 19 11 22 51 24 l47 1 -42 4 c-24 2 -43
9 -43 14 0 6 -6 7 -12 3 -9 -5 -10 -4 -3 4 22 22 114 23 143 0z m-917 -9 c20
-10 20 -11 3 -30 -9 -10 -12 -19 -6 -19 6 0 17 9 25 21 15 20 15 20 36 -9 11
-17 21 -37 21 -45 0 -17 -39 -108 -40 -91 0 6 -16 29 -36 52 -26 31 -48 45
-80 53 -39 10 -44 14 -38 33 4 11 11 27 16 34 13 15 72 16 99 1z m-128 -37
c-3 -12 -12 -22 -19 -22 -12 0 -11 5 2 25 19 30 26 28 17 -3z m47 -52 c11 0
32 -11 47 -25 l28 -25 -32 -29 c-32 -29 -32 -29 -130 -24 -54 3 -100 7 -101 9
-2 1 13 21 35 44 37 40 90 63 121 54 8 -2 22 -4 32 -4z m249 -36 c36 -45 19
-144 -24 -144 -9 0 -6 9 10 25 14 13 25 32 25 42 -1 13 -5 11 -16 -9 -21 -40
-54 -37 -56 5 -2 49 2 81 14 94 15 19 24 16 47 -13z m521 -57 c-4 -26 -10 -50
-13 -54 -9 -8 -9 100 0 123 12 32 21 -16 13 -69z m263 42 c33 -39 61 -89 54
-96 -3 -2 -14 0 -25 6 -27 14 -197 14 -224 0 -26 -14 -31 -8 -18 27 11 27 12
28 25 11 12 -16 13 -14 8 21 -7 55 21 75 96 69 48 -3 59 -9 84 -38z m-917 -74
c16 -43 16 -46 -1 -65 -27 -30 -44 -24 -65 22 l-19 43 26 27 c14 15 30 25 34
23 4 -3 15 -25 25 -50z m-118 -18 c13 -6 32 -31 42 -53 l18 -42 -30 -6 c-17
-3 -35 -3 -40 0 -5 4 -53 9 -106 13 l-97 6 -3 28 c-6 52 20 67 112 67 45 0 91
-6 104 -13z m1068 -22 c31 -13 35 -18 32 -47 -3 -29 -7 -33 -30 -32 -16 0 -62
1 -104 2 l-75 2 -15 35 c-8 20 -12 40 -9 45 10 16 161 12 201 -5z m-919 -30
c-4 -8 -11 -15 -17 -15 -6 0 -6 7 2 20 14 22 24 19 15 -5z"/>
<path d="M3005 4398 c-23 -12 -45 -38 -45 -52 0 -6 7 0 16 12 9 13 21 21 27
19 7 -2 17 2 24 9 25 24 12 31 -22 12z"/>
<path d="M3306 3893 c-11 -11 -6 -23 9 -23 8 0 15 4 15 9 0 13 -16 22 -24 14z"/>
<path d="M2915 3872 c-16 -11 -55 -64 -55 -74 0 -5 14 7 31 27 l31 35 159 0
c99 0 159 4 159 10 0 12 -309 14 -325 2z"/>
<path d="M3382 3830 c0 -14 2 -19 5 -12 2 6 2 18 0 25 -3 6 -5 1 -5 -13z"/>
<path d="M3100 3465 c0 -10 7 -15 18 -13 21 4 19 22 -2 26 -10 2 -16 -3 -16
-13z"/>
<path d="M2346 3893 c-9 -9 -7 -33 3 -33 12 0 22 28 12 34 -5 3 -11 3 -15 -1z"/>
<path d="M2420 3870 c0 -6 43 -10 109 -10 75 0 112 -4 119 -12 5 -7 13 -48 17
-90 11 -130 25 -146 19 -23 -8 147 -6 145 -151 145 -69 0 -113 -4 -113 -10z"/>
<path d="M3626 3962 c5 -5 31 -17 57 -26 57 -21 132 -92 167 -159 26 -49 46
-63 35 -24 -24 78 -127 188 -193 207 -45 12 -80 13 -66 2z"/>
<path d="M1553 2967 c-32 -35 -97 -122 -71 -97 46 45 110 121 106 125 -2 3
-18 -10 -35 -28z"/>
<path d="M4107 2986 c-4 -10 -7 -26 -7 -37 0 -28 29 -81 40 -74 15 9 11 45 -9
89 -14 32 -19 36 -24 22z"/>
<path d="M3126 2841 c-4 -7 -5 -15 -2 -18 9 -9 19 4 14 18 -4 11 -6 11 -12 0z"/>
<path d="M3085 2809 c-10 -15 3 -25 16 -12 7 7 7 13 1 17 -6 3 -14 1 -17 -5z"/>
<path d="M3136 2329 c-33 -39 -34 -86 -5 -327 13 -106 19 -205 16 -247 l-5
-70 16 35 c22 49 20 148 -8 376 l-24 191 22 37 c26 44 22 46 -12 5z"/>
<path d="M2391 2238 c-18 -138 -32 -377 -25 -418 7 -40 18 -56 48 -72 18 -9
18 -7 -4 16 -24 27 -25 32 -23 144 2 64 10 182 19 260 10 89 13 147 7 153 -6
6 -14 -26 -22 -83z"/>
<path d="M2672 1920 c0 -14 2 -19 5 -12 2 6 2 18 0 25 -3 6 -5 1 -5 -13z"/>
<path d="M4001 1834 c0 -11 3 -14 6 -6 3 7 2 16 -1 19 -3 4 -6 -2 -5 -13z"/>
<path d="M2200 1420 c0 -8 8 -29 18 -45 15 -24 20 -60 25 -175 7 -174 27 -350
38 -350 11 0 11 8 -6 175 -8 77 -15 177 -15 223 0 73 -3 89 -30 135 -16 29
-30 45 -30 37z"/>
<path d="M2599 1264 c-4 -33 -15 -63 -32 -86 -27 -35 -34 -58 -18 -58 9 0 42
45 46 64 1 6 5 23 9 37 4 14 6 41 4 60 -3 29 -4 27 -9 -17z"/>
<path d="M2041 4400 l-184 -170 -122 0 c-110 0 -125 -2 -155 -22 l-33 -23 -34
34 c-30 30 -38 33 -71 28 -119 -20 -98 -187 24 -187 28 0 74 44 74 71 0 9 12
31 26 48 l26 31 127 0 128 0 49 42 c106 91 347 318 337 318 -4 -1 -91 -77
-192 -170z m-534 -192 c59 -55 0 -153 -76 -127 -36 13 -51 35 -51 78 0 64 78
95 127 49z"/>
<path d="M3664 4345 c0 -110 2 -156 3 -103 2 53 2 143 0 200 -1 57 -3 13 -3
-97z"/>
<path d="M3958 4501 l-87 -6 -71 -63 -70 -63 2 -107 2 -107 3 101 4 101 68 67
69 66 73 0 c71 0 72 0 54 -20 -10 -11 -14 -20 -8 -20 5 0 18 9 28 20 17 19 31
20 282 20 l263 0 0 -208 c0 -172 -3 -211 -16 -230 -15 -22 -19 -22 -253 -22
l-237 0 -39 40 c-32 33 -46 40 -76 40 -60 0 -69 22 -69 165 0 83 4 125 13 134
10 11 9 13 -3 9 -12 -4 -16 -30 -18 -142 l-3 -136 27 -25 c16 -15 39 -25 57
-25 21 0 43 -12 73 -40 l44 -40 230 0 231 0 24 25 25 24 0 219 c0 219 0 220
-22 226 -27 7 -476 5 -600 -3z"/>
<path d="M791 4490 c221 -4 290 -8 302 -19 11 -8 17 -9 17 -3 0 28 -46 32
-322 30 l-283 -2 286 -6z"/>
<path d="M4630 4267 l-5 -229 -37 -34 -38 -34 -145 0 -145 0 0 -268 0 -269
-70 -79 c-38 -43 -70 -83 -70 -89 0 -10 1 -9 88 91 l62 71 0 266 0 267 148 0
148 0 37 38 37 38 -2 230 -3 229 -5 -228z"/>
<path d="M590 4440 c0 -6 82 -10 225 -10 205 0 227 -2 243 -18 17 -17 20 -46
26 -298 6 -205 11 -283 20 -294 7 -8 16 -33 19 -54 4 -22 10 -43 14 -47 8 -8
289 245 420 378 l62 63 188 3 188 2 -192 3 -193 2 -57 -59 c-32 -32 -138 -134
-235 -226 l-178 -167 0 39 c0 27 -6 46 -20 58 -19 17 -20 31 -20 293 l0 274
-34 34 -34 34 -221 0 c-141 0 -221 -4 -221 -10z"/>
<path d="M1184 4100 c0 -118 2 -167 3 -107 2 59 2 155 0 215 -1 59 -3 10 -3
-108z"/>
<path d="M4632 3720 l2 -295 6 280 c3 154 2 287 -2 295 -4 8 -7 -118 -6 -280z"/>
<path d="M402 3599 l-2 -186 64 -61 64 -62 225 0 224 0 68 60 c37 33 72 60 76
60 5 0 39 -28 76 -62 129 -118 150 -135 123 -104 -14 15 -64 64 -112 108 l-87
80 -71 -61 -71 -61 -229 0 -229 0 -55 54 -56 54 -3 183 -2 184 -3 -186z"/>
<path d="M4386 3365 c-47 -25 -55 -43 -51 -117 5 -99 48 -144 136 -142 128 4
165 199 50 259 -38 19 -98 19 -135 0z m119 -9 c82 -35 99 -141 31 -203 -51
-47 -105 -46 -152 1 -28 28 -34 42 -34 75 0 39 1 40 20 29 11 -7 20 -23 20
-36 0 -30 43 -72 73 -72 33 0 65 28 76 67 12 41 -13 94 -51 107 -32 11 -79 -1
-86 -22 -3 -10 2 -10 21 2 73 48 145 -57 82 -119 -31 -32 -50 -31 -82 1 -19
20 -24 32 -19 54 3 16 1 32 -4 35 -6 3 -10 1 -10 -6 0 -7 -11 -2 -24 10 -31
29 -24 48 28 72 50 23 67 23 111 5z"/>
<path d="M4331 3124 c16 -19 98 -68 105 -62 2 3 -23 21 -57 41 -33 20 -55 29
-48 21z"/>
<path d="M475 3025 c-29 -28 -31 -42 -9 -73 30 -44 114 -18 114 36 0 18 -46
62 -65 62 -9 0 -27 -11 -40 -25z m75 -9 c31 -38 -9 -89 -54 -68 -45 20 -30 82
20 82 12 0 27 -7 34 -14z"/>
<path d="M661 2885 c-30 -33 -49 -45 -70 -45 -21 0 -44 -17 -99 -74 l-72 -74
0 -278 0 -279 90 -72 89 -73 129 0 129 0 64 -51 c70 -56 98 -73 106 -66 3 3
-8 12 -24 20 -15 9 -52 36 -81 61 l-54 46 -132 0 -133 0 -44 38 c-24 21 -63
53 -86 71 l-43 33 0 270 0 271 66 73 c54 61 71 74 96 74 23 0 41 11 72 45 l42
45 163 0 162 0 52 -47 c107 -97 120 -105 41 -25 l-81 82 -170 0 -170 0 -42
-45z"/>
<path d="M4352 2828 c-19 -19 -14 -33 6 -15 15 13 47 17 177 20 l160 3 -165 2
c-119 1 -169 -1 -178 -10z"/>
<path d="M580 2753 c0 -5 52 -7 115 -5 l115 3 50 -47 50 -47 0 -136 0 -137
-53 -52 -53 -52 -110 0 -111 0 -47 50 -46 49 0 119 0 118 38 37 37 36 105 4
105 3 -110 2 -111 2 -37 -38 -37 -38 0 -127 0 -128 46 -49 47 -50 117 0 117 0
63 66 63 65 -7 127 -7 127 -52 53 -51 52 -118 0 c-65 0 -118 -3 -118 -7z"/>
<path d="M4355 2703 c-26 -7 -35 -22 -34 -58 1 -31 3 -28 13 18 l6 27 125 0
125 0 0 -29 c0 -17 11 -42 25 -59 l25 -30 0 -276 0 -276 -42 -48 c-24 -26 -44
-49 -46 -52 -2 -3 -34 -8 -70 -11 l-67 -6 67 -1 66 -2 51 58 51 57 0 287 c0
277 -1 288 -20 300 -13 8 -20 24 -20 43 0 56 -9 60 -127 62 -59 1 -117 -1
-128 -4z"/>
<path d="M806 2639 c17 -19 34 -41 37 -49 4 -10 6 -9 6 6 1 20 -27 52 -59 69
-8 4 -1 -7 16 -26z"/>
<path d="M579 2601 l-39 -39 0 -83 c0 -46 4 -89 8 -96 4 -6 7 31 7 82 l0 94
40 41 c21 22 35 40 31 40 -5 0 -26 -17 -47 -39z"/>
<path d="M4340 2490 c0 -141 -1 -140 109 -140 99 0 89 19 -11 22 l-83 3 -3
112 -3 112 93 4 93 3 -97 2 -98 2 0 -120z"/>
<path d="M622 2558 c-7 -7 -12 -40 -12 -79 0 -77 2 -79 89 -79 74 0 91 17 91
88 0 69 -15 82 -94 82 -35 0 -67 -5 -74 -12z m132 -4 c12 -5 16 -21 16 -69 0
-71 -4 -75 -75 -75 -71 0 -75 4 -75 75 0 41 4 65 13 68 18 8 103 8 121 1z"/>
<path d="M842 2493 l-2 -81 -40 -32 c-36 -29 -45 -31 -105 -29 -36 1 -68 -1
-72 -4 -3 -4 30 -7 73 -7 79 0 80 0 117 38 l38 39 -4 79 -3 79 -2 -82z"/>
<path d="M1902 2294 l-2 -170 -33 -32 c-31 -30 -35 -31 -137 -35 l-105 -3 108
-2 107 -2 36 33 35 32 -3 175 -4 175 -2 -171z"/>
<path d="M4337 2233 c-4 -3 -7 -46 -7 -95 l0 -89 43 -46 c38 -40 49 -45 92
-49 l50 -3 -48 12 c-35 9 -60 24 -88 54 -37 40 -39 46 -39 105 0 110 -1 108
99 108 85 0 88 -1 119 -33 30 -31 32 -38 32 -104 0 -75 -22 -122 -58 -124 -12
0 -13 -2 -4 -6 8 -3 27 7 43 23 27 26 29 32 29 109 0 79 -1 82 -33 113 -32 31
-35 32 -128 32 -53 0 -99 -3 -102 -7z"/>
<path d="M944 1862 c-86 -3 -93 -4 -119 -32 -28 -29 -31 -30 -131 -30 l-103 0
-70 -62 -71 -63 0 -214 0 -213 43 -38 42 -38 5 -148 5 -149 35 -18 c31 -15 64
-17 267 -16 128 0 246 4 262 9 16 4 91 58 167 119 l139 111 112 0 113 0 1 -42
c1 -34 3 -29 10 27 5 39 7 155 5 260 l-3 189 -49 44 c-138 123 -137 122 -231
122 l-85 0 -90 78 c-135 116 -118 109 -254 104z m185 -64 l61 -51 0 -138 0
-139 38 -35 c20 -19 42 -34 47 -35 6 0 -9 16 -32 36 l-43 36 0 129 c0 71 3
129 6 129 3 0 65 -50 137 -112 73 -61 139 -117 147 -123 19 -16 113 -29 105
-15 -3 6 -24 10 -45 10 -33 0 -50 10 -134 82 -52 44 -93 85 -90 90 3 4 34 8
68 8 l64 0 91 -81 91 -80 0 -210 0 -209 -117 0 -118 -1 -143 -114 -144 -115
-264 0 c-330 0 -304 -15 -304 176 l0 136 -45 46 -45 45 0 197 c0 142 3 201 13
212 6 8 38 39 70 67 l58 52 99 -3 99 -3 33 33 c33 32 33 32 134 32 l102 0 61
-52z"/>
<path d="M639 1134 c-17 -21 0 -49 32 -49 27 0 37 28 19 50 -16 19 -34 19 -51
-1z"/>
<path d="M4263 1767 l-73 -73 2 -65 2 -64 3 60 c4 60 4 60 81 138 42 42 72 77
67 77 -4 0 -41 -33 -82 -73z"/>
<path d="M4296 1755 c-98 -110 -100 -132 -24 -211 l52 -54 65 1 c111 2 128 17
21 18 l-96 1 -37 44 c-30 36 -37 53 -37 86 0 39 6 48 72 116 68 71 73 74 117
74 44 0 49 -3 104 -64 57 -64 57 -65 57 -128 0 -61 -2 -65 -46 -110 l-45 -48
-93 0 -93 0 -43 46 c-23 25 -44 43 -47 41 -2 -3 17 -28 44 -56 l49 -51 90 0
90 0 52 53 52 53 0 74 -1 75 -59 63 c-59 61 -60 62 -114 62 l-55 0 -75 -85z"/>
<path d="M4288 1203 c-9 -10 -27 -43 -42 -74 -21 -46 -26 -70 -26 -137 0 -50
4 -82 10 -82 7 0 10 31 9 83 -1 64 4 93 21 132 36 83 39 85 152 85 94 0 98 -1
86 -19 -9 -15 -9 -25 0 -45 22 -49 91 -24 78 28 -8 34 -56 46 -177 46 -79 0
-99 -3 -111 -17z"/>
<path d="M471 855 c-1 -62 17 -113 57 -157 64 -71 37 -68 683 -68 l581 0 72
62 c39 34 75 66 81 70 6 5 6 8 0 8 -6 0 -41 -27 -80 -60 l-70 -60 -599 0 -600
0 -47 49 c-34 35 -50 61 -54 88 -3 21 -10 54 -15 73 l-8 35 -1 -40z"/>
<path d="M3534 711 c3 -5 21 -16 40 -25 30 -14 94 -16 541 -16 335 0 504 3
500 10 -4 6 -188 10 -519 10 -435 0 -515 2 -532 15 -21 16 -38 20 -30 6z"/>
<path d="M4135 640 l-210 -6 309 -2 c170 -1 307 0 305 2 -10 9 -209 12 -404 6z"/>
</g>
</svg>