<?xml version="1.0" standalone="no"?>
<!DOCTYPE svg PUBLIC "-//W3C//DTD SVG 20010904//EN"
 "http://www.w3.org/TR/2001/REC-SVG-20010904/DTD/svg10.dtd">
<svg version="1.0" xmlns="http://www.w3.org/2000/svg"
 width="700.000000pt" height="700.000000pt" viewBox="0 0 512.000000 512.000000"
 preserveAspectRatio="xMidYMid meet">
<metadata>
Created by potrace 1.16, written by Peter Selinger 2001-2019
</metadata>
<g transform="translate(0.000000,512.000000) scale(0.100000,-0.100000)"
fill="#000" stroke="none">
<path d="M2380 4219 c-311 -40 -611 -162 -837 -341 -85 -67 -215 -195 -253
-247 -13 -19 33 22 101 90 143 143 252 224 417 308 344 175 738 231 1069 151
233 -56 456 -179 708 -392 l50 -42 -35 38 c-79 86 -268 219 -425 300 -231 119
-528 169 -795 135z"/>
<path d="M2777 3950 c218 -42 390 -114 551 -230 46 -33 80 -55 76 -49 -17 29
-180 137 -269 180 -108 52 -288 103 -395 113 -55 4 -49 2 37 -14z"/>
<path d="M2425 3923 c-100 -13 -135 -24 -135 -45 0 -16 5 -19 23 -14 39 9 200
26 258 26 60 0 71 4 62 26 -4 11 -26 14 -92 13 -47 -1 -99 -4 -116 -6z"/>
<path d="M2071 3854 c-24 -30 -26 -43 -10 -78 32 -70 139 -44 139 33 0 34 -39
71 -75 71 -24 0 -39 -7 -54 -26z"/>
<path d="M1945 3837 c-174 -70 -324 -174 -455 -315 -126 -134 -113 -132 23 3
139 138 255 220 405 285 83 36 128 60 112 60 -3 0 -41 -15 -85 -33z"/>
<path d="M2545 3828 c-49 -28 -59 -78 -24 -122 35 -45 108 -32 127 22 17 49
-23 113 -70 112 -7 0 -22 -6 -33 -12z m63 -40 c7 -7 12 -21 12 -33 0 -12 -5
-26 -12 -33 -27 -27 -78 -7 -78 29 0 39 52 63 78 37z"/>
<path d="M2967 3793 c-12 -12 -7 -41 8 -47 22 -8 49 23 34 40 -12 15 -31 18
-42 7z"/>
<path d="M3770 3700 c140 -166 239 -326 315 -511 35 -86 55 -118 31 -52 -74
209 -211 435 -356 584 l-61 64 71 -85z"/>
<path d="M2724 3736 c-21 -21 -34 -44 -34 -60 0 -25 -2 -26 -62 -27 -84 -1
-103 -8 -103 -39 0 -29 -24 -37 -117 -39 l-58 -1 0 41 c0 51 -25 94 -63 110
-23 10 -35 9 -62 -4 -40 -19 -55 -60 -55 -154 0 -68 -4 -72 -49 -48 -33 17
-41 39 -41 117 0 51 -2 56 -20 51 -17 -5 -20 -14 -20 -64 l0 -58 -82 1 c-207
3 -386 -115 -447 -295 -16 -45 -22 -52 -51 -58 -93 -19 -92 -164 0 -184 17 -4
35 -15 40 -25 8 -15 4 -22 -24 -39 -45 -28 -101 -91 -123 -138 -15 -33 -18
-70 -18 -264 0 -200 -2 -224 -14 -205 -23 33 -30 35 -95 19 -33 -8 -83 -19
-111 -26 l-50 -12 103 -5 c126 -6 133 -12 151 -127 14 -88 71 -271 108 -350
24 -50 204 -265 389 -464 43 -47 91 -108 106 -136 34 -64 88 -93 171 -93 50 0
59 -3 73 -25 14 -22 16 -40 9 -123 -14 -170 -17 -156 40 -164 28 -3 133 -6
235 -5 144 1 157 2 57 4 l-127 4 6 137 c8 154 1 183 -57 238 -30 29 -31 29
-160 30 -130 1 -130 1 -159 30 -15 16 -96 129 -180 251 -83 123 -163 232 -176
242 -15 12 -49 22 -82 26 -31 3 -64 10 -72 14 -22 12 -55 74 -91 171 -60 162
-39 294 59 381 59 51 129 72 247 72 95 0 136 -11 173 -45 19 -19 22 -31 22
-105 l0 -83 -194 0 c-107 0 -201 -3 -210 -6 -21 -8 -21 -40 0 -48 9 -3 105 -6
215 -6 109 0 199 -4 199 -8 0 -4 -5 -13 -11 -19 -7 -7 -9 -19 -6 -27 6 -15 68
-16 609 -14 597 3 603 3 600 23 -5 29 -7 30 -85 35 l-72 5 -3 41 c-4 61 25 91
103 105 75 14 126 7 161 -20 24 -19 40 -21 155 -21 122 0 129 1 129 20 0 18
-8 20 -112 22 l-113 3 -3 34 -4 34 284 -5 c156 -3 277 -4 271 -1 -9 3 -13 28
-13 77 0 40 -7 95 -15 122 -10 33 -15 94 -15 187 0 75 -4 137 -8 137 -24 0
-55 -52 -60 -99 l-4 -50 -32 23 c-17 13 -44 28 -61 33 -23 8 -32 19 -42 52 -7
24 -17 49 -22 55 -6 7 -12 79 -13 161 -2 108 -6 149 -15 153 -10 3 -13 -28
-13 -133 l0 -137 -36 32 c-20 17 -56 41 -80 53 -24 11 -44 24 -44 28 0 4 14
17 30 29 26 19 30 27 30 71 0 41 5 54 27 75 23 21 35 24 82 22 l56 -3 3 -37
c3 -34 6 -38 31 -38 15 0 35 -8 44 -18 18 -20 23 -72 8 -72 -20 0 -41 -33 -41
-64 0 -64 70 -89 109 -40 25 32 26 40 6 78 -8 15 -15 38 -15 50 0 37 -53 130
-87 152 -36 24 -108 38 -144 29 -21 -5 -28 1 -53 50 -37 71 -111 137 -185 166
l-59 23 29 33 c18 21 29 45 29 63 0 38 -36 78 -77 86 -27 5 -37 1 -63 -24 -36
-37 -40 -85 -9 -118 l20 -22 -58 -6 c-94 -11 -93 -10 -93 -72 0 -30 3 -54 6
-54 3 0 18 13 34 28 106 106 310 29 375 -141 l16 -42 -55 -85 -56 -85 -57 -6
c-32 -4 -70 -10 -84 -13 -24 -7 -26 -5 -38 47 -21 95 -78 166 -171 212 -19 10
-38 23 -42 29 -12 17 -10 254 2 261 6 3 10 24 10 47 0 32 -7 47 -34 74 -28 28
-42 34 -76 34 -34 0 -48 -6 -76 -34z m120 -28 c29 -41 13 -82 -36 -93 -31 -8
-68 23 -68 57 0 53 74 79 104 36z m-542 -55 c23 -20 23 -56 1 -94 -13 -22 -14
-32 -6 -40 9 -9 4 -22 -20 -52 l-32 -39 -7 63 c-4 35 -10 82 -13 105 -10 63
34 96 77 57z m892 1 c42 -41 -12 -109 -60 -76 -20 14 -25 45 -9 68 18 28 47
31 69 8z m-461 -64 c34 -27 41 -52 27 -94 -12 -38 -55 -62 -89 -51 -23 7 -51
53 -51 82 0 25 28 63 54 73 30 12 30 12 59 -10z m87 -120 c0 -44 -2 -80 -5
-80 -13 0 -32 57 -24 75 4 11 8 35 8 53 1 17 6 32 11 32 6 0 10 -33 10 -80z
m-764 26 c33 -16 59 -36 73 -60 l23 -36 -25 -30 c-42 -50 -46 -111 -10 -152
21 -24 12 -33 -68 -63 -68 -26 -144 -76 -181 -119 -10 -12 -29 -42 -43 -68
l-24 -46 -38 38 c-39 39 -92 60 -151 60 -37 0 -52 22 -34 51 9 13 8 32 -4 75
-13 51 -13 63 1 109 16 56 70 136 120 177 103 86 256 113 361 64z m509 -30
c35 -15 58 -45 47 -62 -11 -15 -107 -44 -145 -44 -51 0 -86 -16 -131 -58 l-38
-37 4 77 c5 84 15 103 63 124 40 18 157 17 200 0z m210 -114 c16 -16 62 -41
100 -57 141 -57 195 -149 195 -333 0 -133 -5 -142 -59 -118 l-40 19 -3 91 c-3
83 -5 91 -23 91 -18 0 -20 -8 -23 -97 -1 -54 -5 -98 -9 -98 -3 0 -25 18 -49
39 -55 51 -140 94 -231 116 -40 10 -77 23 -82 29 -7 8 -2 28 14 61 32 62 32
117 1 171 l-23 40 48 18 c27 9 53 26 59 36 17 32 86 27 125 -8z m-529 -18 c20
-19 24 -31 19 -52 -15 -62 -69 -81 -112 -40 -30 28 -29 63 2 93 31 32 59 32
91 -1z m238 -48 c72 -30 90 -119 37 -178 -25 -28 -36 -33 -76 -33 -40 0 -51 5
-76 33 -52 58 -35 147 35 178 39 17 40 17 80 0z m-191 -71 c-3 -9 -8 -14 -10
-11 -3 3 -2 9 2 15 9 16 15 13 8 -4z m-767 -74 c25 -49 -26 -97 -75 -71 -24
12 -29 68 -9 88 21 21 71 10 84 -17z m775 -33 c27 -29 49 -59 49 -66 0 -7 -20
-25 -44 -40 -25 -15 -70 -43 -101 -62 -41 -25 -65 -34 -90 -31 -48 4 -85 -34
-85 -87 0 -30 -7 -45 -34 -71 l-35 -34 -3 59 c-3 51 -6 59 -23 59 -19 0 -20
-8 -23 -183 -2 -170 -4 -183 -20 -177 -9 4 -30 12 -45 17 l-29 10 4 182 c3
165 5 186 27 234 33 73 112 143 201 177 38 15 80 35 92 46 15 12 39 18 67 19
41 0 48 -4 92 -52z m212 -112 c19 -13 61 -32 93 -41 81 -23 126 -48 161 -88
35 -40 66 -114 61 -147 -2 -17 -12 -5 -42 52 -21 40 -48 83 -59 96 -20 21
-115 57 -125 47 -9 -9 29 -55 46 -55 34 0 70 -55 131 -200 l61 -146 0 -182 0
-182 -30 0 -30 0 0 159 c0 163 -3 175 -40 176 -9 0 -30 44 -60 124 -25 69 -52
127 -58 129 -10 3 -12 -34 -10 -155 l3 -158 42 -3 c53 -4 55 -9 51 -157 l-3
-110 -92 -3 -93 -3 0 90 c0 105 -5 121 -35 121 -30 0 -35 -16 -35 -121 l0 -89
-70 0 -71 0 3 133 c3 126 4 132 26 142 21 9 22 15 21 115 l-1 105 -33 -97
c-18 -54 -41 -108 -50 -120 -16 -22 -16 -20 -10 47 3 39 19 126 35 195 62 274
44 280 -47 17 l-45 -132 7 -202 7 -203 -50 0 -51 0 -3 128 -3 127 -25 0 -25 0
-3 -128 -3 -128 -32 3 -32 3 -3 245 c-1 135 0 255 3 267 7 30 54 53 109 53 37
0 48 5 70 31 22 26 26 40 24 77 l-3 47 78 46 c43 26 88 56 100 67 41 37 92 40
140 8z m858 -22 c80 -40 121 -103 134 -205 9 -74 1 -95 -39 -109 -38 -12 -91
-61 -113 -104 -9 -17 -18 -53 -22 -81 l-6 -50 -57 -3 -58 -3 0 141 0 141 33
-6 c47 -9 87 24 87 71 0 65 -69 97 -121 55 -24 -19 -24 -17 -28 -181 -1 -53
-4 -71 -11 -60 -5 8 -10 31 -10 51 0 20 -13 62 -30 95 -35 70 -39 138 -11 201
38 82 143 102 252 47z m-1683 -34 c54 -33 62 -67 62 -259 l0 -169 -57 -7 c-32
-3 -68 -9 -80 -12 -21 -5 -22 -2 -25 79 -3 77 -5 83 -25 86 -33 5 -45 -29 -41
-118 3 -79 3 -79 -27 -94 -16 -9 -43 -26 -58 -38 -28 -23 -29 -23 -44 -3 -12
16 -14 49 -11 185 3 140 7 172 25 211 58 129 190 194 281 139z m1339 -170 c18
-10 42 -39 55 -62 19 -38 23 -61 26 -195 l4 -152 -28 -6 c-60 -14 -100 -28
-126 -46 l-26 -19 -4 237 c-2 131 1 244 6 251 13 18 57 15 93 -8z m620 -51
c43 -21 82 -63 69 -76 -3 -4 -27 3 -54 15 -26 12 -56 23 -67 24 -13 2 -21 12
-23 31 -4 34 14 35 75 6z m52 -137 c41 -43 61 -97 61 -166 0 -44 -1 -46 -30
-46 l-30 0 0 70 c0 70 -9 103 -43 153 -28 41 -1 34 42 -11z m-108 11 c39 -23
73 -94 65 -135 -11 -55 -18 -58 -141 -58 -126 0 -125 0 -125 71 0 107 112 175
201 122z"/>
<path d="M1694 3325 c-56 -38 -51 -130 8 -161 94 -49 179 77 99 148 -35 31
-75 36 -107 13z"/>
<path d="M2646 3184 c-34 -35 -36 -99 -5 -133 39 -42 136 -70 122 -35 -3 8 3
25 14 37 28 31 34 65 18 103 -25 60 -102 74 -149 28z m102 -26 c7 -7 12 -26
12 -43 0 -38 -16 -55 -50 -55 -34 0 -50 17 -50 55 0 38 16 55 50 55 14 0 31
-5 38 -12z"/>
<path d="M2456 2924 c-42 -42 2 -116 56 -95 59 22 46 111 -17 111 -13 0 -31
-7 -39 -16z"/>
<path d="M1833 3659 c-3 -12 -11 -18 -19 -15 -8 3 -14 -1 -14 -9 0 -20 44 -20
60 0 14 16 7 45 -11 45 -6 0 -13 -9 -16 -21z"/>
<path d="M3487 3533 c-43 -49 -17 -123 44 -123 35 0 79 39 79 70 0 54 -88 91
-123 53z"/>
<path d="M3630 3462 c0 -5 10 -17 21 -28 12 -10 44 -52 71 -91 53 -79 75 -100
32 -30 -32 49 -113 157 -120 157 -2 0 -4 -4 -4 -8z"/>
<path d="M3504 3356 c-10 -26 4 -48 28 -44 17 2 23 10 23 28 0 18 -6 26 -23
28 -13 2 -25 -3 -28 -12z"/>
<path d="M1158 3320 c-36 -28 -51 -72 -45 -127 13 -117 166 -151 227 -51 38
63 13 153 -50 185 -38 19 -103 16 -132 -7z m110 -98 c4 -28 -24 -40 -45 -19
-14 13 -14 19 -3 32 18 22 44 15 48 -13z"/>
<path d="M1107 2983 c-13 -46 -17 -77 -9 -63 10 17 24 80 17 80 -2 0 -6 -8 -8
-17z"/>
<path d="M3943 2975 c-38 -16 -53 -42 -53 -90 0 -106 159 -117 185 -12 9 36
-20 86 -60 103 -40 16 -32 17 -72 -1z m46 -68 c8 -10 7 -19 -4 -33 -12 -17
-15 -18 -30 -3 -17 17 -11 49 10 49 7 0 18 -6 24 -13z"/>
<path d="M1095 2795 c-38 -37 -35 -95 6 -129 49 -42 105 -32 134 24 21 41 19
64 -11 99 -34 41 -92 44 -129 6z"/>
<path d="M3867 2743 c-9 -8 -9 -56 -1 -77 7 -18 39 -22 49 -6 3 6 0 10 -8 10
-23 0 -27 25 -6 38 11 7 16 18 13 27 -6 15 -35 20 -47 8z"/>
<path d="M4107 2659 c-24 -14 -47 -62 -47 -98 0 -20 11 -42 29 -63 25 -28 36
-33 75 -33 64 0 101 37 101 101 0 39 -5 50 -33 75 -34 31 -89 39 -125 18z m73
-64 c15 -18 6 -45 -15 -45 -18 0 -30 24 -21 45 7 19 20 19 36 0z"/>
<path d="M1153 2552 c-33 -21 -32 -82 1 -104 36 -24 96 11 96 55 0 43 -59 73
-97 49z m71 -28 c9 -8 16 -19 16 -24 0 -13 -30 -40 -43 -40 -33 1 -53 42 -31
65 20 19 38 19 58 -1z"/>
<path d="M3887 2480 c-27 -21 -37 -70 -19 -96 25 -37 110 -46 142 -14 65 65
-49 168 -123 110z m47 -16 c21 -8 21 -48 0 -65 -11 -9 -20 -10 -32 -2 -24 15
-27 45 -6 60 21 15 18 15 38 7z"/>
<path d="M912 2317 c-16 -19 3 -189 33 -310 47 -184 140 -372 251 -509 50 -61
71 -78 94 -78 10 0 40 29 40 38 0 4 -25 40 -55 80 -114 152 -185 299 -229 472
-32 128 -34 200 -6 225 22 20 27 64 8 83 -16 16 -123 16 -136 -1z"/>
<path d="M3934 2299 c-3 -6 0 -17 8 -25 13 -13 16 -13 27 0 7 8 10 20 6 26 -8
13 -32 13 -41 -1z"/>
<path d="M3532 2273 c3 -16 19 -18 133 -21 141 -3 158 0 149 23 -5 12 -29 15
-146 15 -127 0 -139 -2 -136 -17z"/>
<path d="M4063 2238 c-6 -7 -16 -38 -23 -68 -34 -151 -118 -308 -310 -580
-177 -251 -205 -296 -226 -359 -33 -103 -2 -77 187 156 230 284 372 518 438
726 39 121 39 127 2 127 -16 0 -36 2 -44 5 -7 3 -18 0 -24 -7z"/>
<path d="M2983 2194 c-12 -32 22 -42 125 -37 101 4 119 11 109 37 -10 24 -225
23 -234 0z"/>
<path d="M3493 2187 c-29 -31 -49 -73 -66 -141 -20 -74 -54 -125 -119 -177
-45 -35 -56 -40 -82 -33 -82 20 -133 3 -180 -59 -25 -34 -27 -118 -4 -163 16
-30 16 -30 -17 -57 -20 -15 -39 -44 -47 -69 -15 -46 -36 -57 -130 -73 -82 -13
-168 -113 -190 -219 -16 -72 0 -153 49 -250 19 -39 37 -73 39 -75 1 -1 34 2
72 9 l69 11 -28 52 c-15 29 -35 87 -43 130 -26 125 0 182 94 207 107 29 154
75 166 164 9 66 33 92 91 101 83 12 123 42 146 111 10 29 25 45 58 65 l44 25
5 75 c5 66 10 81 46 136 39 58 41 67 47 155 3 51 4 94 3 95 -2 2 -12 -7 -23
-20z"/>
<path d="M1995 1930 c77 -37 254 -107 284 -112 28 -4 52 25 35 42 -8 8 -207
61 -359 95 -11 3 7 -9 40 -25z"/>
<path d="M3085 1899 c-49 -10 -164 -34 -255 -53 -91 -20 -182 -38 -202 -41
-76 -12 -131 -84 -131 -172 0 -64 34 -122 86 -146 135 -65 269 70 208 208 -12
26 -21 49 -21 50 0 5 106 48 270 111 178 68 182 72 45 43z m-371 -220 c35 -41
34 -83 -3 -120 -20 -20 -39 -29 -61 -29 -43 0 -90 47 -90 90 0 45 47 90 93 90
27 0 41 -7 61 -31z"/>
<path d="M2198 1754 c-53 -28 -72 -98 -43 -154 21 -41 53 -60 101 -60 51 0 88
27 104 75 16 49 4 89 -36 125 -39 34 -81 39 -126 14z"/>
<path d="M2300 1440 c-43 -43 -13 -130 44 -130 38 0 56 10 72 42 39 75 -57
147 -116 88z"/>
<path d="M1351 1334 c54 -57 202 -179 281 -232 144 -96 291 -166 436 -206 103
-28 82 -12 -30 24 -233 73 -434 194 -627 376 -81 76 -121 102 -60 38z"/>
<path d="M3370 1169 c-90 -63 -242 -136 -365 -175 -128 -40 -150 -58 -31 -25
139 38 351 142 443 217 45 37 13 26 -47 -17z"/>
</g>
</svg>