<?xml version="1.0" standalone="no"?>
<!DOCTYPE svg PUBLIC "-//W3C//DTD SVG 20010904//EN"
 "http://www.w3.org/TR/2001/REC-SVG-20010904/DTD/svg10.dtd">
<svg version="1.0" xmlns="http://www.w3.org/2000/svg"
 width="512.000000pt" height="512.000000pt" viewBox="0 0 512.000000 512.000000"
 preserveAspectRatio="xMidYMid meet">
<metadata>
Created by potrace 1.16, written by Peter Selinger 2001-2019
</metadata>
<g transform="translate(0.000000,512.000000) scale(0.100000,-0.100000)"
fill="#000" stroke="none">
<path d="M2525 4034 c-86 -10 -178 -29 -249 -51 -390 -122 -766 -424 -925
-741 -130 -258 -163 -619 -85 -918 27 -104 68 -204 83 -204 16 0 14 7 -19 98
-50 137 -70 261 -70 430 0 286 55 484 194 696 225 346 733 631 1159 653 65 3
120 10 123 15 14 22 -101 34 -211 22z"/>
<path d="M1552 3924 c-23 -16 -29 -53 -12 -70 8 -8 -2 -19 -30 -39 -53 -37
-190 -181 -190 -200 0 -24 24 -17 47 13 41 56 179 195 215 218 43 27 52 66 19
84 -25 13 -22 13 -49 -6z"/>
<path d="M2617 3801 c-19 -21 -39 -46 -44 -56 -9 -16 -13 -16 -61 1 -30 11
-53 26 -55 36 -7 24 -49 23 -70 0 -22 -24 -22 -113 -1 -158 15 -32 51 -68 76
-76 6 -2 2 -18 -11 -38 -12 -19 -26 -52 -32 -73 l-10 -38 -27 52 c-36 70 -87
110 -148 117 -40 4 -44 6 -25 13 36 14 26 67 -19 97 -65 43 -129 10 -133 -70
l-2 -37 -23 22 c-18 17 -27 19 -40 11 -23 -15 -28 -52 -7 -60 12 -5 8 -14 -24
-49 -47 -51 -64 -102 -60 -177 3 -45 1 -54 -11 -51 -10 3 -30 -21 -59 -71
l-44 -75 -32 25 c-17 13 -46 26 -63 29 -102 16 -92 19 -92 -26 0 -22 7 -55 14
-74 11 -26 12 -35 3 -35 -7 0 -39 -13 -72 -30 -33 -16 -65 -30 -72 -30 -25 0
-22 -20 8 -55 l31 -35 -41 -62 c-66 -99 -76 -144 -76 -353 1 -144 5 -199 22
-275 44 -204 95 -291 278 -476 208 -211 368 -308 604 -372 85 -22 116 -25 266
-25 231 -1 337 24 550 128 310 150 604 457 696 723 31 90 49 196 59 352 18
258 -13 448 -101 626 -51 104 -115 174 -247 272 -298 220 -495 321 -751 386
-57 14 -107 26 -111 26 -4 0 -23 -17 -43 -39z m229 -37 c222 -63 496 -225 685
-402 134 -126 201 -238 263 -445 48 -159 62 -279 46 -405 -34 -272 -149 -495
-365 -708 -545 -536 -1178 -568 -1720 -88 -149 134 -190 179 -229 257 -110
223 -135 599 -51 767 l22 44 18 -34 c10 -19 23 -42 30 -50 11 -12 11 -26 -3
-80 -25 -101 -22 -294 7 -395 32 -117 103 -257 160 -316 62 -65 82 -63 33 4
-60 82 -79 117 -117 216 -42 110 -69 269 -60 356 8 82 26 175 34 175 3 -1 17
-7 31 -15 33 -19 101 -19 145 -1 l35 15 0 -30 c0 -33 23 -95 45 -119 12 -13
13 -26 3 -79 -11 -61 -8 -101 18 -190 6 -20 4 -22 -12 -18 -10 3 -37 9 -59 12
-36 6 -38 5 -22 -9 10 -8 41 -17 68 -21 31 -4 53 -13 58 -24 8 -15 2 -17 -60
-16 -67 0 -69 1 -79 29 -12 35 -13 76 -2 76 5 0 17 7 28 16 18 15 17 15 -12
10 -26 -4 -33 -1 -37 14 -4 15 1 20 27 23 l31 3 -34 9 -34 8 6 84 6 84 -39 15
c-36 15 -40 20 -40 52 0 32 -1 34 -13 18 -12 -16 -14 -16 -27 11 -11 23 -14
25 -18 10 -5 -26 37 -84 76 -102 28 -14 32 -21 32 -55 0 -31 -4 -40 -17 -41
-11 0 -13 -3 -5 -6 6 -2 12 -12 12 -20 0 -16 -15 -15 -77 3 -43 12 -23 -13 25
-31 26 -10 50 -20 53 -24 4 -3 9 -27 13 -53 l6 -48 -40 -6 c-47 -8 -43 -24 6
-24 38 0 50 -18 61 -90 3 -19 12 -43 21 -52 13 -15 17 -63 9 -108 -1 -8 2 -17
8 -20 5 -3 13 13 18 35 9 45 -6 113 -27 121 -8 3 -12 14 -9 25 4 16 14 19 56
19 42 0 48 -2 36 -12 -11 -9 -19 -49 -28 -141 -12 -132 -10 -157 15 -136 11 9
24 2 63 -32 106 -95 272 -173 425 -199 56 -9 117 -25 135 -35 56 -29 139 -31
196 -6 27 12 58 29 68 39 30 27 57 88 57 128 0 33 2 36 24 30 32 -8 68 6 98
38 l23 25 42 -39 c30 -28 38 -42 30 -49 -21 -17 -117 -51 -144 -51 -33 0 -63
-26 -63 -56 0 -24 24 -54 43 -54 25 0 57 32 57 56 0 20 9 28 48 44 26 11 63
28 82 39 27 14 48 17 88 14 71 -7 129 16 182 73 45 49 85 128 95 190 4 22 13
56 21 77 18 47 18 68 0 44 -13 -17 -15 -15 -21 20 -15 93 -91 172 -172 180
-26 2 -54 7 -62 9 -8 3 36 33 98 68 61 35 141 89 179 119 37 30 94 71 127 92
70 44 131 99 151 137 45 87 -24 228 -111 228 -35 0 -48 -12 -109 -100 -27 -40
-99 -100 -118 -100 -20 0 6 43 49 83 24 22 55 59 68 82 34 57 58 169 50 229
-16 124 -106 217 -211 220 -31 1 -40 4 -32 13 16 20 4 57 -24 73 -26 14 -29
13 -48 -6 -20 -20 -24 -20 -65 -7 -85 29 -207 -21 -260 -105 -21 -33 -35 -41
-35 -19 0 30 -63 141 -107 188 l-47 51 83 -7 82 -8 -3 34 c-4 45 -36 62 -102
54 -27 -3 -61 -12 -76 -20 -26 -13 -28 -13 -38 10 -13 28 -49 34 -58 10 -9
-21 -19 -19 -31 8 -10 21 -6 29 32 70 40 44 46 47 93 47 27 0 90 -12 138 -26z
m-368 -44 c62 -27 92 -61 91 -104 0 -28 -1 -29 -12 -12 -27 43 -61 78 -91 93
-24 12 -17 3 29 -42 38 -36 55 -59 47 -62 -7 -3 -22 3 -33 13 -22 20 -38 12
-19 -11 25 -31 0 -14 -39 26 -24 25 -43 55 -47 75 -7 37 3 76 14 57 4 -6 31
-21 60 -33z m-321 -72 c13 -12 23 -25 23 -29 0 -3 -17 -19 -37 -35 -20 -15
-34 -21 -31 -13 3 8 9 25 13 39 l7 25 -17 -23 c-13 -18 -16 -35 -12 -70 l6
-47 -19 35 c-25 46 -25 95 0 120 26 26 38 25 67 -2z m473 -33 c-7 -9 -15 -13
-18 -10 -3 2 1 11 8 20 7 9 15 13 18 10 3 -2 -1 -11 -8 -20z m205 -6 c10 -15
8 -15 -70 -11 -48 3 -64 7 -50 13 30 11 113 11 120 -2z m-794 -56 c13 -15 12
-15 -8 -4 -24 12 -29 21 -14 21 5 0 15 -7 22 -17z m680 -29 c93 -88 136 -220
115 -357 -6 -37 -13 -46 -57 -75 -28 -18 -59 -49 -71 -68 l-20 -34 -42 37
c-23 21 -63 52 -88 70 -26 17 -59 53 -75 80 -25 44 -28 57 -28 143 0 87 3 100
30 149 34 61 64 86 94 76 12 -4 30 0 43 9 33 24 44 20 99 -30z m-436 -29 c57
-43 79 -97 80 -190 0 -68 -5 -93 -34 -165 -20 -51 -47 -99 -68 -120 -33 -34
-34 -35 -49 -15 -8 11 -18 32 -21 48 -5 22 -8 25 -20 15 -8 -6 -13 -22 -10
-35 3 -19 0 -23 -20 -23 -40 0 -116 81 -154 163 -30 64 -34 82 -34 157 0 73 3
90 23 118 13 18 37 39 53 48 34 17 60 9 33 -10 -9 -7 -14 -18 -10 -24 9 -16
99 -15 114 0 19 19 14 31 -13 26 -31 -6 -32 6 -2 27 30 22 89 14 132 -20z
m991 -47 c4 -6 2 -14 -4 -16 -7 -2 -22 -21 -32 -43 -24 -46 -32 -50 -20 -11
23 78 39 98 56 70z m-248 -71 c-44 -39 -108 -142 -108 -173 0 -8 -5 -14 -11
-14 -16 0 -2 64 26 120 28 56 87 110 118 110 19 -1 15 -7 -25 -43z m162 34 c0
-15 -28 -20 -39 -8 -7 10 -4 13 15 15 13 1 24 -2 24 -7z m-65 -51 c3 -6 -1 -7
-9 -4 -18 7 -21 14 -7 14 6 0 13 -4 16 -10z m-35 -3 c0 -2 -10 -12 -22 -23
l-23 -19 19 23 c18 21 26 27 26 19z m113 -74 c-7 -2 -19 -2 -25 0 -7 3 -2 5
12 5 14 0 19 -2 13 -5z m-1283 -67 c0 -8 14 -46 31 -86 17 -40 29 -73 27 -75
-2 -1 -17 0 -34 2 -30 5 -32 7 -38 65 -8 84 -8 108 4 108 6 0 10 -6 10 -14z
m540 -90 c19 -19 10 -33 -27 -39 -21 -3 -49 -9 -61 -13 l-24 -7 20 39 c11 22
25 59 32 84 l12 45 19 -49 c10 -27 23 -54 29 -60z m-622 -79 l-33 -41 -3 33
c-3 25 5 46 30 82 l33 49 3 -40 c3 -33 -3 -48 -30 -83z m-161 102 c35 -13 83
-58 83 -78 0 -10 -9 -6 -30 14 -43 42 -46 26 -4 -24 l37 -42 -39 7 c-21 3 -43
9 -48 12 -12 6 -46 83 -46 105 0 20 8 21 47 6z m1372 -81 c54 -27 106 -97 116
-158 7 -39 5 -43 -42 -88 -26 -26 -57 -66 -68 -89 -18 -37 -25 -42 -62 -48
-80 -12 -146 10 -199 67 -59 62 -80 139 -59 210 36 117 188 168 314 106z
m-467 -36 c34 -20 88 -108 88 -145 0 -18 -6 -26 -25 -29 -25 -5 -34 5 -15 17
6 3 10 14 10 23 0 12 -7 9 -25 -13 -13 -16 -24 -36 -25 -43 0 -8 -8 -10 -27
-6 -47 12 -56 44 -24 85 37 48 44 75 8 34 l-35 -39 -7 52 c-4 28 -11 54 -16
58 -12 7 -11 -8 2 -101 l10 -77 -28 -24 -28 -24 -8 33 c-16 70 -50 171 -54
161 -2 -6 3 -38 11 -71 l14 -61 -50 29 c-64 38 -74 31 -14 -10 55 -38 76 -67
76 -103 0 -26 -3 -28 -27 -22 -16 3 -61 24 -102 45 -117 63 -97 37 38 -47 1
-2 -6 -13 -18 -25 -11 -12 -23 -30 -26 -40 -4 -11 -36 -30 -83 -48 -42 -16
-78 -28 -80 -26 -4 3 15 85 21 92 3 3 39 8 79 12 60 6 68 9 45 15 -16 5 -46 6
-68 3 l-40 -5 6 41 c30 194 272 344 417 259z m-589 -32 c39 -43 39 -115 -1
-158 -30 -32 -94 -55 -139 -50 -23 3 -28 -2 -34 -30 -15 -72 -78 -104 -159
-82 -84 23 -140 109 -119 184 12 44 67 92 121 107 55 14 128 -1 175 -37 38
-29 43 -19 12 20 l-21 27 28 30 c26 27 34 30 69 25 27 -4 49 -16 68 -36z
m-401 -21 c-29 -17 -55 -29 -58 -27 -5 5 86 58 101 58 6 0 -14 -14 -43 -31z
m559 -19 c21 0 39 -3 39 -6 0 -4 -9 -21 -19 -38 -11 -17 -27 -58 -36 -91 -10
-33 -25 -85 -35 -115 -10 -30 -21 -72 -24 -94 l-7 -38 35 4 c37 4 40 1 30 -26
-5 -14 -11 -13 -45 4 -21 11 -51 20 -66 21 -27 0 -27 1 -6 11 24 11 36 34 27
49 -7 13 -31 11 -54 -3 -18 -11 -23 -9 -44 17 -13 17 -22 32 -20 35 3 2 15 -8
27 -24 20 -25 24 -26 36 -13 17 22 0 52 -39 66 -59 20 -77 -9 -67 -105 7 -66
14 -79 33 -63 11 9 14 8 14 -3 0 -39 -41 -25 -65 22 -18 34 -20 119 -3 155 8
19 19 25 41 25 46 0 115 38 142 78 28 41 35 126 13 165 -10 19 -7 18 21 -6 23
-19 44 -27 72 -27z m1496 -32 c47 -52 56 -108 26 -160 -11 -18 -65 -62 -128
-104 -60 -41 -140 -98 -177 -127 -92 -72 -231 -149 -252 -141 -13 5 -2 16 48
50 35 24 84 67 108 96 78 94 112 121 216 170 56 26 102 52 102 58 0 18 -23 11
-125 -39 -100 -47 -129 -71 -225 -177 -28 -31 -76 -67 -125 -94 -44 -23 -87
-49 -95 -56 -28 -23 -173 -92 -305 -143 -71 -28 -157 -69 -190 -91 -34 -22
-69 -40 -79 -40 -23 0 191 141 525 346 74 46 161 106 193 134 81 71 166 126
212 139 66 18 131 67 182 136 26 36 52 65 58 65 6 0 20 -10 31 -22z m-307 -93
c0 -21 -37 -69 -77 -102 -27 -20 -73 -60 -103 -88 -31 -27 -87 -71 -125 -96
-389 -257 -494 -324 -501 -316 -6 6 20 82 33 95 7 8 18 22 23 33 6 10 18 19
26 19 28 0 79 32 199 128 125 99 181 131 227 132 23 0 29 6 37 38 23 84 128
162 219 162 23 0 42 -2 42 -5z m-646 -26 c30 -23 33 -54 9 -81 -32 -35 -86
-17 -98 34 -5 19 -1 32 14 47 26 26 41 26 75 0z m-146 -11 c23 -23 14 -54 -24
-74 -35 -19 -36 -19 -50 0 -19 27 -18 42 6 66 23 23 50 26 68 8z m-120 -96
c18 -24 15 -53 -10 -79 -25 -27 -54 -29 -80 -6 -18 16 -24 59 -10 79 23 34 75
38 100 6z m350 6 c35 -35 -4 -87 -52 -68 -45 17 -29 80 19 80 12 0 26 -5 33
-12z m-155 -30 c22 -27 22 -53 -3 -78 -52 -52 -144 1 -119 68 17 45 87 51 122
10z m297 -26 c3 -3 0 -7 -7 -9 -7 -2 -28 -15 -47 -28 -41 -28 -50 -21 -34 23
11 28 15 30 47 25 20 -3 38 -8 41 -11z m-964 -57 c14 -31 24 -59 20 -62 -3 -3
-7 -4 -8 -2 -16 25 -58 108 -58 113 0 3 4 6 9 6 5 0 22 -25 37 -55z m339 15
c3 -5 -8 -16 -24 -24 -77 -40 -43 -174 39 -153 16 4 31 -3 56 -28 l33 -33 -24
-16 c-33 -22 -58 -72 -53 -108 4 -25 2 -29 -16 -26 -17 2 -22 12 -27 58 -8 70
-21 100 -71 174 -34 50 -39 64 -34 94 5 37 22 52 66 63 38 10 48 10 55 -1z
m434 -11 c20 -7 33 -20 37 -36 10 -40 -9 -49 -52 -22 l-38 23 17 -24 c23 -33
21 -46 -8 -75 -26 -27 -73 -33 -93 -13 -7 7 -12 26 -12 43 0 61 51 76 76 23
l15 -33 -4 46 c-4 45 5 79 22 79 4 0 22 -5 40 -11z m-216 -37 c29 -30 28 -61
-2 -63 -52 -4 -91 19 -91 52 0 19 25 38 51 39 8 0 27 -13 42 -28z m300 -7 c-3
-9 -8 -14 -10 -11 -3 3 -2 9 2 15 9 16 15 13 8 -4z m-467 -21 c9 -34 -15 -59
-49 -50 -51 12 -40 76 13 76 24 0 31 -5 36 -26z m-251 -24 c65 -40 135 -171
135 -251 0 -35 -4 -41 -37 -58 -21 -10 -47 -28 -57 -40 -38 -42 -141 -14 -186
49 -46 65 -61 166 -39 256 9 36 14 42 25 33 11 -9 21 -8 44 1 16 7 30 16 30
21 0 16 52 9 85 -11z m335 -5 c11 -13 10 -20 0 -41 -17 -30 -44 -28 -48 4 -3
22 13 52 28 52 4 0 13 -7 20 -15z m116 -50 c20 -31 10 -63 -23 -71 -37 -10
-58 7 -58 47 0 27 5 34 25 40 38 11 38 11 56 -16z m557 -83 c9 -10 30 -42 46
-71 27 -50 30 -52 40 -32 23 43 99 13 142 -55 21 -34 24 -51 24 -129 0 -105
-22 -161 -90 -231 l-40 -43 -88 0 -88 0 -38 38 c-83 83 -106 234 -52 347 29
62 73 104 109 104 19 0 72 -52 72 -70 0 -5 -14 -4 -32 1 -25 7 -36 5 -50 -7
-9 -9 -15 -21 -12 -26 4 -6 9 -6 13 1 5 7 22 3 51 -13 l45 -24 38 20 c22 11
45 17 53 14 8 -3 14 -1 14 5 0 14 -44 29 -69 22 -14 -4 -21 -1 -21 9 0 26 -61
100 -91 111 -28 11 -36 26 -22 40 11 12 29 8 46 -11z m-84 -27 c-13 -12 -79
-34 -79 -26 0 5 12 14 28 19 29 11 58 15 51 7z m-591 -32 c-29 -12 -38 -22
-38 -39 0 -12 4 -25 10 -29 5 -3 7 -12 3 -21 -9 -24 -33 4 -33 39 0 41 26 67
64 66 l31 -1 -37 -15z m347 -64 c-33 -17 -82 -52 -109 -78 -49 -46 -49 -46
-24 -9 31 47 63 72 124 97 73 30 77 24 9 -10z m148 -16 c-28 -40 -53 -119 -53
-170 l0 -43 -39 0 c-37 0 -40 2 -55 43 -26 74 -38 118 -33 124 9 9 192 82 195
78 3 -2 -5 -16 -15 -32z m-297 -42 c-17 -19 -64 -36 -73 -27 -5 5 66 45 81 46
5 0 1 -9 -8 -19z m-279 -37 c28 -18 47 -76 38 -122 -15 -84 -82 -142 -163
-142 -80 0 -116 91 -73 185 22 49 48 73 98 90 40 15 64 12 100 -11z m241 -24
c-7 -11 -19 -22 -26 -25 -28 -11 -122 -17 -122 -9 0 9 118 51 148 53 10 1 10
-3 0 -19z m152 -115 c9 -29 9 -48 2 -67 l-11 -26 -49 16 c-44 15 -49 19 -40
36 10 18 7 77 -5 106 -4 10 6 24 31 43 l36 28 13 -48 c6 -26 17 -66 23 -88z
m-780 107 c0 -4 20 -39 45 -76 25 -38 45 -71 45 -72 0 -2 -21 -4 -47 -4 -37 0
-53 6 -75 27 -20 19 -28 22 -28 12 0 -9 13 -28 29 -43 27 -26 34 -28 83 -22
48 6 56 4 74 -16 47 -54 47 -54 12 -77 -39 -24 -14 -30 31 -7 17 9 32 11 42 5
8 -5 28 -9 45 -9 17 0 37 -7 44 -15 10 -12 6 -18 -22 -35 -18 -11 -36 -20 -40
-20 -5 0 -8 -4 -8 -9 0 -12 59 7 81 26 15 12 22 8 61 -36 25 -28 48 -60 51
-71 5 -20 2 -21 -41 -14 -116 16 -276 90 -405 187 l-77 59 4 100 c3 70 8 103
18 109 17 11 78 12 78 1z m136 -36 c1 -1 -1 -19 -5 -41 l-6 -40 -33 47 -32 47
37 -6 c21 -3 39 -6 39 -7z m470 -31 c-10 -8 -23 -12 -29 -8 -11 7 12 23 33 23
12 -1 11 -4 -4 -15z m-84 -35 c-2 -22 -8 -37 -13 -34 -10 6 -12 57 -2 67 14
15 18 5 15 -33z m362 -50 c-12 -4 -31 -21 -42 -37 -18 -24 -21 -25 -22 -9 0
28 29 56 59 55 24 0 25 -1 5 -9z m-410 -65 c-14 -11 -35 -41 -47 -67 l-23 -48
-34 35 c-25 26 -30 35 -17 35 21 0 94 65 102 91 6 19 7 18 25 -3 18 -23 18
-23 -6 -43z m233 -15 c111 -50 111 -195 1 -249 -115 -55 -251 13 -251 126 0
55 24 90 83 121 54 27 111 28 167 2z m198 -219 c3 -5 1 -12 -5 -16 -5 -3 -10
1 -10 9 0 18 6 21 15 7z"/>
<path d="M1778 2587 c-5 -10 -8 -39 -8 -63 0 -44 0 -44 35 -44 19 0 35 5 35
10 0 6 -11 10 -24 10 -23 0 -25 4 -28 53 -2 35 -5 46 -10 34z"/>
<path d="M3490 2538 c-2 -85 -16 -184 -35 -253 -22 -74 -22 -78 -4 -57 49 62
89 332 48 332 -5 0 -9 -10 -9 -22z"/>
<path d="M1740 1981 c0 -10 7 -24 15 -31 16 -13 18 -8 9 28 -8 27 -24 29 -24
3z"/>
<path d="M2710 3425 c0 -3 10 -25 22 -48 23 -44 30 -129 16 -197 l-7 -35 17
30 c25 44 22 148 -6 202 -20 38 -42 63 -42 48z"/>
<path d="M2580 3152 c0 -11 39 -47 68 -61 32 -17 27 0 -11 37 -32 31 -57 41
-57 24z"/>
<path d="M2296 3403 c19 -63 18 -100 -7 -205 -12 -49 -19 -91 -16 -94 2 -2 14
31 27 73 29 95 31 194 7 241 -24 45 -27 40 -11 -15z"/>
<path d="M2918 3025 c-8 -8 11 -87 23 -100 7 -7 8 3 3 30 -9 52 -18 77 -26 70z"/>
<path d="M2841 2973 c2 -16 79 -76 79 -61 0 8 -8 22 -17 30 -25 21 -63 40 -62
31z"/>
<path d="M3005 2949 c-26 -32 -27 -46 -2 -36 13 5 42 67 32 67 -2 0 -15 -14
-30 -31z"/>
<path d="M3035 2890 c8 -13 35 -13 55 0 11 7 5 10 -23 10 -23 0 -36 -4 -32
-10z"/>
<path d="M2790 2878 c0 -5 10 -6 22 -2 20 6 21 5 9 -10 -7 -9 -10 -16 -7 -16
9 0 66 29 66 34 0 1 -20 3 -45 4 -25 0 -45 -4 -45 -10z"/>
<path d="M2990 2870 c0 -5 5 -10 10 -10 6 0 10 5 10 10 0 6 -4 10 -10 10 -5 0
-10 -4 -10 -10z"/>
<path d="M2934 2841 c9 -16 18 -47 22 -70 4 -23 11 -44 16 -47 7 -4 7 9 2 37
-4 24 -7 54 -7 66 1 13 -3 21 -7 18 -4 -3 -10 2 -14 10 -3 8 -10 15 -16 15 -6
0 -5 -11 4 -29z"/>
<path d="M1700 2896 c0 -2 7 -17 15 -32 26 -50 17 -60 -20 -24 -19 18 -38 30
-42 26 -4 -4 19 -31 50 -60 47 -43 57 -48 57 -32 -1 45 -18 109 -31 117 -15 9
-29 12 -29 5z"/>
<path d="M1610 2822 c0 -11 24 -22 48 -22 21 0 5 15 -25 25 -13 3 -23 2 -23
-3z"/>
<path d="M2370 2670 c0 -5 5 -10 10 -10 6 0 10 5 10 10 0 6 -4 10 -10 10 -5 0
-10 -4 -10 -10z"/>
<path d="M1975 2010 c-10 -11 -13 -20 -8 -20 13 0 38 29 31 35 -3 3 -13 -4
-23 -15z"/>
<path d="M3246 3833 c-3 -4 26 -24 66 -45 177 -97 363 -257 484 -417 148 -198
247 -468 274 -751 l9 -95 -4 120 c-12 340 -158 660 -418 912 -101 98 -239 198
-348 253 -31 16 -59 26 -63 23z"/>
<path d="M1594 3457 c-85 -91 -184 -251 -208 -337 -4 -14 15 19 42 72 55 107
114 195 187 276 66 73 50 65 -21 -11z"/>
<path d="M1187 3397 c-18 -28 -67 -142 -67 -157 0 -26 29 -6 44 30 9 22 27 58
41 80 14 22 25 46 25 55 0 23 -26 18 -43 -8z"/>
<path d="M4094 2958 c26 -90 47 -201 60 -303 12 -107 14 -113 15 -55 2 108
-49 380 -71 380 -6 0 -7 -10 -4 -22z"/>
<path d="M1041 2913 c-47 -179 -53 -523 -12 -714 42 -196 103 -344 204 -497
75 -112 122 -170 132 -160 4 4 -25 55 -65 114 -127 190 -199 362 -242 577 -29
148 -31 417 -4 582 21 128 21 128 7 133 -5 2 -14 -14 -20 -35z"/>
<path d="M4146 2363 c-3 -3 -6 -21 -6 -39 0 -61 -32 -199 -76 -333 -49 -147
-53 -187 -6 -64 81 214 136 484 88 436z"/>
<path d="M3967 2188 c-9 -7 -32 -57 -51 -112 -43 -121 -96 -211 -190 -324
-124 -148 -269 -273 -438 -378 -255 -158 -501 -222 -803 -211 -448 17 -815
208 -1060 552 -59 81 -146 248 -167 317 -6 21 -15 38 -19 38 -12 0 33 -125 74
-207 106 -209 266 -391 457 -518 366 -243 820 -300 1237 -154 292 102 625 361
859 670 74 98 174 272 174 304 0 14 -29 35 -47 35 -5 0 -17 -6 -26 -12z"/>
<path d="M1646 1649 c65 -71 286 -230 299 -217 3 2 -37 32 -88 65 -50 33 -122
88 -159 122 -70 64 -102 83 -52 30z"/>
<path d="M3740 1400 c-32 -33 -38 -50 -17 -50 17 0 79 64 71 73 -13 12 -24 7
-54 -23z"/>
<path d="M3325 1158 c-54 -36 -198 -101 -294 -132 -88 -29 -128 -56 -83 -56
75 0 423 156 430 193 4 22 -16 20 -53 -5z"/>
</g>
</svg>