<?xml version="1.0" standalone="no"?>
<!DOCTYPE svg PUBLIC "-//W3C//DTD SVG 20010904//EN"
 "http://www.w3.org/TR/2001/REC-SVG-20010904/DTD/svg10.dtd">
<svg version="1.0" xmlns="http://www.w3.org/2000/svg"
 width="512.000000pt" height="512.000000pt" viewBox="0 0 512.000000 512.000000"
 preserveAspectRatio="xMidYMid meet">
<metadata>
Created by potrace 1.16, written by Peter Selinger 2001-2019
</metadata>
<g transform="translate(0.000000,512.000000) scale(0.100000,-0.100000)"
fill="#000" stroke="none">
<path d="M2360 4641 c-90 -28 -221 -140 -256 -221 -18 -40 -36 -37 -26 4 9 36
71 114 118 148 24 17 42 33 40 36 -12 12 -111 -57 -143 -100 -46 -60 -80 -66
-90 -15 l-7 32 -12 -30 c-7 -16 -13 -54 -14 -83 0 -42 5 -60 25 -86 14 -18 25
-42 25 -54 0 -27 20 -72 33 -72 6 0 8 -28 4 -74 -5 -65 -3 -77 14 -92 15 -13
19 -31 19 -78 l0 -61 -67 -24 c-162 -57 -276 -132 -382 -250 l-72 -79 -83 -4
c-259 -14 -466 -262 -466 -561 l0 -80 -74 -77 c-144 -151 -163 -228 -130 -533
l18 -170 -40 -74 c-34 -65 -39 -81 -39 -141 0 -81 23 -125 115 -222 l62 -65
-18 45 c-10 25 -35 73 -56 106 -38 62 -60 137 -51 177 3 12 20 56 38 97 31 69
34 85 40 215 3 77 8 160 10 185 l5 45 -19 -35 -19 -35 -7 48 c-17 111 21 202
133 319 l79 83 6 115 c8 176 54 285 163 390 90 87 154 114 276 118 l98 4 45
68 c48 72 102 121 192 176 58 35 184 87 239 98 30 7 32 5 42 -36 22 -84 42
-170 42 -179 0 -14 -77 -59 -185 -107 l-100 -44 -159 -3 c-144 -3 -219 -15
-214 -34 1 -3 -4 -17 -11 -30 -7 -13 -9 -21 -4 -19 4 2 35 17 68 33 52 26 71
30 145 30 64 0 94 -5 120 -19 27 -15 59 -19 150 -21 225 -5 442 -85 487 -180
9 -19 14 -37 11 -40 -3 -3 -34 6 -69 19 -35 13 -80 26 -99 30 l-35 6 36 -14
c110 -43 189 -111 189 -165 0 -48 -19 -55 -108 -42 -142 21 -147 21 -61 -8
144 -46 181 -88 140 -154 -39 -63 -176 -141 -291 -167 -30 -6 -87 -10 -127 -8
-39 1 -69 0 -67 -4 9 -15 -16 -17 -43 -4 -15 8 -54 26 -86 40 -76 34 -141 95
-172 163 -30 62 -27 78 18 131 18 20 26 33 20 28 -26 -15 -12 11 34 63 31 36
39 50 24 42 -42 -23 -99 -81 -121 -124 l-21 -42 3 65 c3 43 13 85 31 125 22
48 23 55 7 35 -34 -42 -71 -129 -85 -199 -10 -50 -13 -57 -14 -31 -1 19 3 50
8 68 12 41 7 40 -22 -3 -13 -19 -41 -54 -62 -76 -29 -31 -40 -38 -46 -27 -15
23 -9 102 11 147 11 24 20 46 20 49 0 13 -76 -106 -117 -183 -35 -65 -44 -76
-49 -59 -3 12 -21 28 -39 37 -43 20 -67 58 -77 116 -4 28 -6 3 -4 -68 2 -62 0
-108 -4 -100 -6 8 -9 3 -12 -17 l-3 -29 -35 49 c-19 26 -40 56 -47 65 -28 38
9 -76 39 -120 30 -44 98 -99 124 -99 6 0 31 16 55 34 61 49 153 73 213 56 103
-29 136 -73 136 -183 0 -83 -21 -151 -67 -217 -63 -90 -224 -182 -288 -166
-37 9 -57 58 -58 142 l-2 73 -21 -47 c-12 -26 -31 -56 -42 -66 -21 -18 -24
-18 -65 -2 -23 9 -58 16 -77 15 -39 0 -35 -3 54 -35 77 -28 142 -96 172 -178
13 -38 23 -70 22 -72 -2 -1 -30 10 -63 26 -33 16 -78 32 -100 35 l-40 5 39
-15 c55 -21 105 -54 117 -76 10 -19 8 -19 -33 2 l-43 22 41 -44 c22 -24 64
-69 93 -99 102 -106 160 -213 161 -295 1 -100 14 -131 92 -233 89 -116 100
-135 62 -101 -52 45 -70 54 -38 19 50 -56 84 -106 84 -122 0 -9 -7 -21 -16
-28 -8 -8 -20 -22 -26 -33 -10 -20 -10 -20 18 0 45 32 70 36 147 23 85 -14
128 -31 167 -63 26 -22 32 -23 78 -14 42 9 54 8 74 -6 12 -10 55 -38 93 -63
105 -69 124 -100 53 -89 -81 13 -117 25 -168 60 -55 37 -78 42 -129 24 -28
-10 -31 -15 -31 -50 0 -44 -14 -50 -64 -24 -16 9 -31 13 -34 10 -3 -2 34 -44
82 -93 77 -79 100 -112 79 -112 -19 0 -119 43 -141 61 l-25 19 34 -6 c28 -6
32 -4 22 7 -7 7 -13 24 -14 39 l-1 25 -10 -27 c-8 -25 -12 -27 -31 -17 -12 6
-40 28 -62 48 l-39 36 45 -55 c25 -30 60 -76 79 -102 18 -27 37 -48 42 -48 4
0 8 -4 8 -10 0 -5 -14 -7 -32 -3 -24 4 -30 3 -23 -5 23 -25 370 -69 615 -78
173 -7 404 6 595 32 249 34 325 62 465 169 107 82 178 153 205 205 42 84 39
97 -9 33 -101 -133 -264 -251 -447 -323 l-52 -21 7 58 c3 32 13 79 21 106 8
26 11 47 7 47 -8 0 -73 -81 -115 -143 -14 -21 -23 -45 -20 -53 3 -8 -1 -14
-10 -14 -9 0 -23 -3 -33 -7 -15 -5 -16 -2 -10 23 14 54 90 179 145 238 31 33
47 55 36 51 -11 -5 -36 -9 -55 -10 -23 0 -48 -11 -72 -29 -84 -67 -348 -138
-503 -135 -49 1 -49 1 25 15 110 20 302 65 297 70 -2 2 -55 0 -118 -6 -161
-14 -163 -13 -74 29 44 20 107 58 140 83 98 74 170 108 229 108 28 0 58 -5 66
-10 11 -8 8 -9 -11 -5 -15 4 -44 2 -66 -4 -39 -11 -196 -91 -190 -98 2 -1 46
10 98 27 83 26 115 30 276 36 l182 7 35 29 c38 31 45 48 22 48 -9 0 1 23 30
66 34 50 44 75 44 106 0 60 26 103 92 155 46 36 65 61 90 112 17 36 35 74 40
83 20 39 -5 14 -62 -64 l-60 -82 0 67 c0 89 25 158 95 262 71 105 138 168 218
205 34 16 55 29 46 30 -29 0 -107 -27 -139 -50 l-32 -23 17 34 c27 51 74 120
108 156 43 46 25 41 -28 -8 -49 -45 -47 -46 -58 31 -4 23 -5 22 -12 -10 l-8
-34 -19 64 c-27 96 -92 446 -85 463 3 8 41 34 84 57 43 24 97 56 120 72 28 19
43 24 43 15 0 -7 -5 -18 -10 -23 -8 -8 15 -39 74 -104 107 -118 139 -175 139
-249 0 -31 -3 -67 -8 -81 l-8 -24 -23 29 -24 30 26 -65 c22 -53 58 -228 50
-237 -1 -2 -28 42 -60 97 -58 101 -85 134 -71 89 11 -36 48 -105 103 -197 44
-72 99 -201 118 -277 12 -46 -5 -91 -56 -149 -28 -32 -69 -85 -92 -119 -22
-34 -71 -96 -107 -137 -37 -41 -85 -100 -106 -130 -22 -30 -70 -93 -106 -140
-89 -113 -177 -260 -157 -260 2 0 39 42 81 93 42 52 120 131 172 177 106 93
165 158 217 240 51 81 54 100 7 47 -40 -46 -79 -76 -79 -60 0 18 104 144 188
229 66 67 94 102 103 133 13 44 14 40 -31 165 -15 41 -23 94 -27 179 l-6 120
-18 -87 c-10 -49 -21 -91 -25 -95 -10 -9 4 122 23 214 47 223 7 369 -152 558
l-59 71 -1 106 c-1 125 -25 208 -87 300 -90 136 -261 230 -417 230 -32 0 -45
8 -96 61 -82 84 -160 142 -258 194 -74 40 -252 105 -364 134 -26 7 -53 24 -73
47 -26 31 -31 42 -26 73 15 96 27 275 21 303 -5 21 -4 28 4 24 31 -19 -17 63
-68 117 -41 43 -82 57 -166 56 -61 0 -207 -25 -170 -29 11 -1 -19 -12 -67 -25
-83 -23 -162 -58 -201 -89 -11 -8 -25 -32 -32 -53 l-14 -38 -1 37 c-1 84 95
139 325 188 129 28 157 31 200 22 28 -5 52 -8 54 -6 7 6 -66 45 -113 59 -52
16 -173 19 -216 6z m232 -192 c-92 -59 -128 -69 -237 -66 -81 2 -97 -1 -122
-19 -15 -11 -33 -36 -40 -55 -10 -28 -12 -30 -12 -10 -1 36 35 87 75 106 29
13 51 15 117 10 82 -6 82 -6 161 34 106 54 142 54 58 0z m-559 -66 c28 -30 29
-33 10 -33 -29 0 -63 46 -62 84 0 31 0 31 10 6 6 -14 24 -40 42 -57z m415 -40
c-10 -2 -26 -2 -35 0 -10 3 -2 5 17 5 19 0 27 -2 18 -5z m-355 -38 c28 -19 9
-19 -37 0 -41 18 -51 40 -10 25 14 -6 36 -17 47 -25z m360 -8 c4 -7 5 -39 2
-72 -5 -45 -2 -65 9 -80 15 -19 15 -19 16 8 0 15 7 39 16 52 16 24 15 60 -1
98 -7 16 -4 18 21 15 26 -3 29 -7 32 -42 2 -28 -3 -47 -17 -67 l-21 -28 24
-17 c35 -22 89 -121 92 -169 1 -22 6 -63 9 -90 12 -89 -21 -140 -174 -267
-105 -87 -144 -99 -177 -55 l-16 22 5 -22 c4 -17 1 -23 -13 -23 -22 0 -36 17
-46 55 -3 17 -29 97 -55 179 -46 139 -61 226 -40 226 5 0 11 -4 13 -10 2 -5
15 -11 31 -12 31 -3 32 -8 16 -92 -10 -54 -9 -60 12 -82 12 -13 25 -21 30 -19
4 3 10 -1 12 -7 4 -9 8 -10 14 -3 4 6 27 17 51 23 35 11 42 17 42 38 0 19 -7
29 -29 37 -26 10 -29 14 -24 46 4 20 10 38 15 39 4 2 6 8 2 13 -7 11 -2 11 33
-1 26 -9 27 -9 9 5 -22 17 -17 20 58 30 35 5 45 9 35 16 -8 5 -25 9 -38 9 -13
0 -22 3 -19 6 8 7 36 12 78 13 39 1 32 13 -18 29 -29 10 -38 8 -80 -18 -26
-16 -62 -31 -81 -32 -30 -3 -35 0 -47 32 l-12 35 -1 -32 c-1 -19 7 -41 17 -51
15 -15 18 -30 14 -82 -4 -51 -2 -62 9 -58 20 8 59 -9 59 -25 0 -10 -19 -17
-61 -21 -69 -8 -84 -1 -71 35 16 42 23 123 14 169 -8 43 -9 44 -17 18 -8 -32
-23 -34 -71 -12 l-34 16 0 93 c0 111 5 117 75 104 32 -6 57 -6 70 0 76 38 122
51 170 45 27 -3 53 -11 58 -17z m309 -114 c9 -10 19 -28 22 -40 17 -55 -45
-167 -88 -161 -18 3 -21 11 -24 67 -3 71 10 114 42 136 26 19 30 19 48 -2z
m109 -297 c24 -14 89 -44 144 -66 141 -59 215 -102 287 -168 60 -56 133 -155
124 -170 -2 -4 23 -5 57 -4 164 10 332 -95 382 -239 24 -66 19 -156 -10 -215
-48 -97 -100 -127 -193 -111 l-54 9 9 36 c17 77 8 165 -24 233 -47 99 -65 115
-37 34 28 -83 31 -179 8 -233 -14 -33 -17 -35 -24 -17 -55 130 -94 216 -100
220 -4 3 3 -21 15 -53 13 -31 26 -75 30 -97 l7 -40 -21 29 c-31 46 -116 129
-153 150 -29 17 -25 12 25 -43 31 -34 75 -89 98 -122 l40 -60 -45 35 c-49 37
-139 75 -196 82 -33 4 -32 3 14 -16 53 -23 147 -82 167 -106 34 -42 -111 -187
-226 -225 -27 -9 -34 -14 -22 -17 10 -2 16 -9 14 -15 -5 -15 -46 -22 -59 -9
-5 5 -26 6 -51 1 -109 -21 -291 1 -383 46 -59 29 -95 69 -113 127 -19 58 -5
73 102 108 75 24 83 28 42 22 -27 -4 -72 -7 -100 -7 -44 0 -51 3 -63 27 -10
23 -10 33 2 61 15 37 28 44 166 87 l65 20 -70 -7 c-140 -13 -158 -11 -169 20
-8 22 -5 37 17 81 25 50 76 247 124 479 13 66 20 83 24 65 14 -48 8 -191 -11
-290 -11 -57 -20 -113 -20 -125 0 -13 -12 -30 -30 -43 -45 -32 -36 -40 21 -19
28 11 133 41 233 66 210 53 341 63 406 31 l35 -18 -28 25 c-49 44 -119 54
-233 34 -62 -11 -64 -10 -107 20 -64 43 -123 114 -142 169 -15 45 -34 242 -23
242 3 0 25 -11 49 -24z m-612 -376 c12 0 24 -20 39 -62 12 -33 21 -62 20 -63
-8 -7 -209 42 -209 50 0 6 19 34 41 63 l41 52 26 -20 c14 -11 33 -20 42 -20z
m301 -30 c27 0 27 0 19 -47 -10 -50 -38 -106 -54 -106 -12 -1 -87 102 -110
151 -13 25 -14 37 -5 47 9 11 21 8 67 -16 30 -16 67 -29 83 -29z m1121 20
c216 -67 352 -304 271 -472 -31 -64 -59 -86 -32 -25 32 73 35 126 11 205 -43
141 -149 241 -311 293 -40 12 -48 17 -29 18 15 1 55 -8 90 -19z m-1301 -72
c52 -79 52 -92 1 -70 -21 9 -37 21 -34 27 2 6 -3 28 -12 48 -33 80 -8 77 45
-5z m1336 -643 c46 -19 53 -38 105 -299 l43 -218 -23 -42 c-36 -70 -106 -95
-170 -62 -103 54 -206 274 -205 441 0 140 44 195 157 195 32 0 73 -7 93 -15z
m-956 -161 c114 -26 228 -64 251 -83 17 -14 20 -24 15 -45 -4 -15 -14 -30 -22
-33 -9 -3 -73 0 -143 7 -129 12 -139 11 -222 -24 -13 -5 -19 1 -28 25 -6 18
-11 42 -11 55 l0 23 -47 -29 c-45 -27 -220 -80 -266 -80 -15 0 -18 -3 -10 -11
13 -13 134 -17 186 -6 32 7 40 5 62 -17 34 -34 41 -71 22 -111 -14 -29 -23
-35 -73 -45 -64 -14 -125 -9 -196 14 -27 8 -48 13 -48 11 0 -1 25 -17 55 -34
48 -27 83 -38 182 -57 13 -2 30 -18 39 -36 13 -26 14 -38 5 -70 -17 -57 -57
-78 -149 -78 -118 0 -180 40 -189 123 -5 37 -2 47 17 60 18 13 19 16 7 24 -40
22 -62 127 -36 174 6 12 25 27 42 34 l32 14 -48 1 c-42 0 -54 5 -83 34 -48 48
-45 72 9 86 23 6 96 26 162 45 161 45 143 43 290 44 85 0 152 -5 195 -15z
m-826 -9 c27 -8 62 -15 78 -15 15 0 28 -4 28 -10 0 -5 -7 -10 -15 -10 -32 0
-114 22 -131 35 -24 18 -20 18 40 0z m1231 -12 c-36 -20 -192 -32 -181 -14 4
6 35 11 69 12 34 1 73 5 87 9 43 14 56 10 25 -7z m-1077 -160 c37 -36 42 -45
33 -62 -6 -11 -11 -30 -11 -42 0 -19 -4 -18 -42 17 -67 59 -83 100 -55 145 11
19 13 19 22 2 6 -10 29 -37 53 -60z m-299 -87 c21 -21 60 -52 86 -69 65 -43
85 -73 92 -139 5 -47 0 -70 -26 -143 -39 -109 -41 -181 -7 -250 l25 -48 -31
-60 c-45 -90 -98 -235 -102 -281 -7 -65 -45 -158 -64 -154 -9 2 -33 33 -53 69
-19 36 -61 104 -92 150 -32 47 -57 93 -57 104 0 10 10 39 23 64 17 36 22 63
22 126 0 99 -19 158 -91 286 -30 52 -54 101 -54 107 0 6 19 21 43 33 96 50
155 119 197 237 l23 63 14 -29 c8 -16 31 -46 52 -66z m1051 52 c53 -27 55 -46
7 -96 -34 -35 -106 -62 -169 -62 -29 0 -41 6 -54 25 -22 34 -11 90 26 127 25
24 36 28 87 28 41 0 72 -7 103 -22z m-801 -60 c62 -66 63 -68 88 -172 39 -169
68 -195 218 -206 100 -7 154 -26 179 -61 27 -40 20 -64 -36 -114 l-53 -47 42
23 c48 25 83 84 83 136 0 28 4 32 62 53 49 18 75 21 130 18 37 -3 75 -11 83
-18 66 -55 -76 -175 -205 -173 -56 2 -80 -9 -80 -33 0 -15 36 -19 44 -5 4 6
203 8 250 2 12 -2 -3 -69 -26 -116 -11 -22 -41 -68 -65 -103 l-45 -63 49 24
c26 13 65 30 86 37 21 6 44 22 52 33 23 36 105 291 105 326 0 62 46 111 117
124 31 6 32 5 42 -44 25 -117 12 -154 -94 -270 -83 -91 -135 -160 -135 -180 0
-7 23 10 52 39 29 30 67 57 88 63 74 22 130 -6 102 -52 -8 -12 -9 -18 -3 -14
6 3 11 4 11 1 0 -3 -10 -10 -21 -17 -15 -7 -19 -8 -15 0 5 7 1 9 -8 5 -9 -3
-16 -10 -16 -14 0 -13 -76 -39 -224 -76 -180 -46 -355 -56 -487 -29 -156 31
-390 115 -419 151 -9 10 -6 24 11 59 30 60 54 60 110 -2 38 -44 40 -45 23 -13
-10 19 -49 64 -86 100 -100 97 -108 138 -57 271 28 73 32 79 45 62 13 -17 14
-16 9 7 -21 98 -23 121 -9 116 8 -3 22 -9 32 -13 9 -4 -6 18 -34 49 -28 31
-55 73 -62 95 -13 45 -16 117 -4 111 4 -1 36 -33 71 -70z m1071 30 c29 -48 26
-97 -10 -146 -16 -23 -38 -46 -49 -51 -18 -10 -20 -7 -23 71 -3 76 -1 83 25
119 16 22 31 39 33 39 2 0 13 -15 24 -32z m389 -103 c47 -95 116 -165 211
-214 44 -23 80 -47 80 -53 0 -7 -24 -52 -54 -102 -68 -112 -96 -195 -96 -279
0 -55 -3 -67 -26 -88 -46 -43 -74 -102 -83 -178 -7 -50 -17 -85 -36 -112 -24
-37 -45 -44 -45 -16 0 22 -51 121 -74 147 -13 14 -29 41 -35 61 -6 20 -27 61
-45 92 -51 85 -57 122 -29 182 29 63 30 136 3 233 -38 135 -24 203 55 268 26
21 68 58 94 81 25 24 47 43 47 43 1 0 16 -29 33 -65z m-696 -85 c31 -11 66
-20 77 -20 11 0 20 -7 20 -15 0 -21 -56 -81 -87 -93 -29 -11 -158 -43 -183
-45 -22 -3 -40 62 -30 109 19 82 89 104 203 64z m321 -26 c39 -15 10 -72 -59
-118 -53 -35 -65 -33 -65 7 0 39 12 57 59 92 38 27 41 28 65 19z m-952 -730
c241 -81 433 -96 653 -50 144 29 303 69 364 91 53 18 51 18 51 1 0 -39 -491
-156 -658 -156 -132 0 -379 53 -519 111 -88 37 -119 60 -110 82 5 13 14 12 61
-14 30 -17 101 -46 158 -65z m53 -109 c105 -42 223 -90 263 -107 l72 -30 0
-69 c0 -54 -4 -71 -16 -76 -21 -8 -273 53 -349 84 -87 36 -92 37 -66 14 13
-12 22 -23 20 -25 -2 -2 -40 3 -84 10 -91 16 -188 53 -181 68 3 6 15 43 27 81
12 39 23 72 25 74 4 4 77 -26 157 -64 71 -35 47 -12 -56 51 -51 31 -93 58 -95
59 -2 2 0 14 4 29 l6 26 42 -25 c23 -13 127 -59 231 -100z m1015 26 c0 -9
-104 -58 -207 -96 -51 -20 -181 -60 -325 -101 -11 -3 -18 0 -18 9 0 29 39 46
205 90 133 36 325 95 343 106 1 0 2 -3 2 -8z m100 -106 c7 -9 11 -17 9 -19 -2
-2 -60 -13 -129 -25 -205 -36 -261 -50 -347 -85 -93 -37 -112 -38 -29 -1 93
41 420 142 467 144 9 1 22 -6 29 -14z m-712 -72 c4 -75 -9 -127 -31 -131 -15
-3 -17 8 -17 91 0 97 4 110 30 105 11 -2 16 -19 18 -65z m-556 -259 c32 -43
64 -121 53 -132 -4 -4 -10 -2 -12 4 -2 6 -24 41 -48 78 -25 37 -45 71 -45 76
0 21 26 8 52 -26z m973 -43 c-10 -17 -128 -50 -215 -61 -101 -12 -357 -12
-295 0 22 4 103 13 180 19 77 6 178 20 225 30 102 23 113 24 105 12z m19 -52
c-45 -50 -217 -150 -232 -135 -11 11 24 37 129 96 115 64 131 70 103 39z"/>
<path d="M2540 3951 c0 -6 -13 -25 -29 -43 -26 -30 -29 -42 -32 -115 -4 -70
-8 -86 -29 -110 l-25 -28 32 29 c40 36 57 85 49 143 -3 25 -2 42 3 38 12 -7
51 43 51 66 0 10 -4 21 -10 24 -5 3 -10 2 -10 -4z"/>
<path d="M2203 3753 c-34 -13 -3 -18 97 -15 65 2 108 7 105 13 -6 9 -180 12
-202 2z"/>
<path d="M2227 3694 c21 -33 82 -38 112 -9 l24 23 -75 4 c-75 3 -75 3 -61 -18z"/>
<path d="M2711 4154 c-22 -27 -24 -46 -12 -99 l7 -30 17 33 c14 25 15 37 6 53
-7 15 -8 24 0 32 18 18 37 -38 23 -68 -15 -32 -15 -48 -2 -40 19 12 31 80 19
114 -13 38 -31 39 -58 5z"/>
<path d="M3267 2844 c-65 -42 -116 -79 -113 -81 10 -10 146 69 192 111 27 25
47 45 44 45 -3 0 -58 -34 -123 -75z"/>
<path d="M3010 2720 c-24 -8 -24 -8 5 -9 17 0 37 4 45 9 12 8 11 10 -5 9 -11
-1 -31 -5 -45 -9z"/>
<path d="M2076 2085 c8 -21 23 -50 32 -64 11 -16 19 -57 23 -115 10 -136 54
-248 140 -349 3 -5 -9 47 -27 115 -19 67 -34 126 -34 130 0 4 29 -7 65 -23 80
-38 101 -34 43 8 -71 51 -116 103 -139 162 -25 62 -65 126 -98 155 l-21 19 16
-38z"/>
<path d="M3001 1705 c-17 -20 -31 -38 -31 -40 0 -12 10 -2 40 35 39 49 33 53
-9 5z"/>
<path d="M2210 1295 c0 -6 276 -145 287 -145 18 0 -78 56 -161 95 -102 47
-126 56 -126 50z"/>
<path d="M2055 1258 c58 -31 177 -79 183 -74 9 10 -191 98 -217 96 -3 -1 12
-10 34 -22z"/>
<path d="M1359 3361 c-31 -22 -68 -57 -83 -79 -30 -43 -76 -147 -76 -172 0 -8
11 11 24 43 29 70 94 156 150 199 58 45 62 48 50 48 -6 0 -35 -18 -65 -39z"/>
<path d="M1385 3236 c-36 -47 -65 -127 -65 -179 0 -79 16 -71 28 15 8 51 23
105 40 141 16 31 27 57 26 57 -2 0 -15 -15 -29 -34z"/>
<path d="M2005 2730 c11 -5 31 -8 45 -8 l25 0 -25 8 c-14 4 -34 8 -45 8 l-20
1 20 -9z"/>
<path d="M1320 2707 c0 -4 -11 -44 -24 -89 -30 -106 -38 -151 -27 -143 12 7
64 225 57 233 -3 3 -6 2 -6 -1z"/>
<path d="M965 2434 c-18 -28 -45 -100 -45 -118 1 -15 25 30 49 93 23 57 22 64
-4 25z"/>
<path d="M1126 2256 c27 -13 67 -43 87 -66 23 -27 37 -37 37 -28 0 41 -99 118
-152 118 -16 0 -8 -7 28 -24z"/>
<path d="M938 2113 c-12 -27 -23 -71 -26 -100 -5 -59 11 -94 99 -213 80 -110
95 -116 50 -19 -53 112 -84 228 -85 312 0 37 -4 67 -9 67 -4 0 -18 -21 -29
-47z"/>
<path d="M4196 2124 c4 -23 -7 -54 -46 -132 -63 -125 -114 -191 -187 -240 -38
-25 -51 -38 -40 -40 32 -6 15 -54 -50 -145 l-34 -48 63 42 c89 60 106 77 139
141 20 40 45 70 83 98 74 56 99 110 100 210 0 51 -5 86 -17 110 l-17 35 6 -31z"/>
<path d="M4262 1984 c-1 -12 -15 -47 -31 -77 -26 -49 -27 -54 -9 -49 32 8 50
45 45 99 -2 26 -4 38 -5 27z"/>
<path d="M1070 1884 c0 -22 42 -159 59 -193 26 -50 60 -80 175 -151 l99 -61
-7 32 c-8 41 -26 61 -98 110 -66 45 -137 124 -190 211 -21 34 -38 57 -38 52z"/>
<path d="M905 1766 c3 -27 16 -72 28 -100 30 -64 130 -191 191 -241 26 -21 44
-40 41 -43 -6 -6 -74 38 -128 85 -59 51 109 -113 230 -224 54 -50 115 -115
135 -145 19 -29 62 -93 94 -142 58 -88 123 -160 197 -218 l37 -30 -35 78 c-20
44 -58 113 -85 154 -27 41 -67 109 -89 150 -42 78 -55 78 -21 0 l19 -45 -22
29 c-12 16 -44 59 -72 96 -27 36 -70 89 -94 116 l-43 49 40 -78 41 -77 -96 97
c-53 54 -97 104 -99 111 -3 16 -71 107 -128 171 -76 85 -100 123 -123 190
l-23 66 5 -49z"/>
<path d="M4195 1709 c-49 -27 -112 -72 -140 -100 l-50 -49 84 30 c46 17 92 35
101 40 22 12 110 109 110 121 0 14 -10 10 -105 -42z"/>
<path d="M4344 1659 c-6 -8 -28 -63 -48 -124 -64 -189 -143 -320 -297 -496
-68 -77 -74 -86 -34 -51 121 105 247 271 316 415 54 113 101 305 63 256z"/>
<path d="M866 1605 c12 -55 65 -178 112 -258 119 -201 301 -375 527 -507 59
-34 32 -11 -69 61 -230 161 -395 352 -500 574 -82 175 -76 164 -70 130z"/>
<path d="M3825 1350 c-117 -105 -180 -172 -197 -205 -5 -11 13 5 40 35 27 30
86 86 130 123 63 54 155 150 140 146 -2 0 -52 -45 -113 -99z"/>
<path d="M3954 1338 c-90 -96 -164 -202 -164 -234 0 -7 150 183 192 244 16 23
27 42 25 42 -2 0 -26 -24 -53 -52z"/>
<path d="M1444 1273 c26 -35 49 -63 52 -63 8 0 -57 88 -80 107 -11 10 2 -10
28 -44z"/>
<path d="M1690 856 c22 -44 52 -93 66 -109 l25 -30 -7 27 c-5 20 -3 26 11 26
12 0 5 13 -25 48 -23 26 -46 46 -51 45 -4 -2 -6 4 -2 13 3 8 1 14 -4 12 -6 -2
-20 8 -33 22 -14 16 -8 -2 20 -54z"/>
<path d="M3320 870 c-66 -42 -100 -80 -71 -80 13 0 89 63 107 88 19 27 19 27
-36 -8z"/>
</g>
</svg>